<svg width="29" height="26" viewBox="0 0 29 26" fill="none" xmlns="http://www.w3.org/2000/svg">
<path d="M10.88 5.52V9.936C10.88 11.664 9.888 12.176 9.376 12.24V12.88C9.856 12.944 10.88 13.456 10.88 15.184V20.88C10.88 24.08 10.24 26 7.68 26H0.8C0.704 26 0.64 25.936 0.64 25.84V0.559999C0.64 0.463999 0.704 0.4 0.8 0.4H7.68C10.24 0.4 10.88 2.32 10.88 5.52ZM4.8 4.24V10.48H6.72V4.24H4.8ZM6.72 22.16V14.64H4.8V22.16H6.72ZM16.1713 26H12.3313C12.2353 26 12.1713 25.936 12.1713 25.84V0.559999C12.1713 0.463999 12.2353 0.4 12.3313 0.4H16.1713C16.2673 0.4 16.3313 0.463999 16.3633 0.559999L18.5713 11.28H19.2113V0.559999C19.2113 0.463999 19.2753 0.4 19.3713 0.4H23.5313C23.6273 0.4 23.6913 0.463999 23.6913 0.559999V25.84C23.6913 25.936 23.6273 26 23.5313 26H19.8193C19.7233 26 19.6593 25.936 19.6273 25.84L16.9713 13.84H16.3313V25.84C16.3313 25.936 16.2673 26 16.1713 26ZM28.3438 26H25.1438C25.0478 26 24.9838 25.936 24.9838 25.84V22C24.9838 21.904 25.0478 21.84 25.1438 21.84H28.3438C28.4398 21.84 28.5038 21.904 28.5038 22V25.84C28.5038 25.936 28.4398 26 28.3438 26Z" fill="#18181B"/>
</svg>
