<svg width="129" height="40" viewBox="0 0 129 40" fill="none" xmlns="http://www.w3.org/2000/svg">
<path d="M23.0473 32.8623L22.4971 30.9655L20.5522 31.4451L21.9468 30.0279L20.5522 28.6107L22.4971 29.0903L23.0473 22.8962L23.5976 29.0903L25.5425 28.6107L24.1478 30.0279L25.5425 31.4451L23.5976 30.9655L23.0473 32.8623Z" fill="#E4E4E7"/>
<path d="M27.7398 26.3096L27.4665 25.3699L26.5006 25.6075L27.1933 24.9054L26.5006 24.2033L27.4665 24.4409L27.7398 21.3722L28.0131 24.4409L28.979 24.2033L28.2864 24.9054L28.979 25.6075L28.0131 25.3699L27.7398 26.3096Z" fill="#E4E4E7"/>
<mask id="mask0_3026_4015" style="mask-type:luminance" maskUnits="userSpaceOnUse" x="0" y="4" width="32" height="32">
<path d="M3.57501 10.8423C4.68213 9.4989 7.16868 7.42885 7.16868 7.42885C7.16868 7.42885 7.16275 5.0939 7.54044 4.50301C7.91813 3.91212 8.41752 3.94276 10.2305 4.09052C12.0435 4.23827 11.8157 5.53925 11.8157 5.53925C11.8157 5.53925 13.2961 5.19911 14.2631 5.14304C17.0253 4.98286 19.2509 4.71635 21.6053 6.33166C23.9598 7.94697 23.2163 8.52604 25.5088 9.44036C27.0578 10.2023 29.2604 10.498 30.9222 11.1628C32.5841 11.8276 31.8287 13.6004 31.8287 13.6004C31.8287 13.6004 31.6776 14.339 31.1488 15.521C30.7224 16.4739 29.7674 16.6579 29.0855 16.6749C29.1118 16.7385 29.1378 16.8023 29.1632 16.8664C29.6961 17.1728 30.5585 17.6693 30.3107 18.2179C30.0629 18.7665 25.3849 18.6141 22.7516 20.3818C20.41 21.9536 18.7925 23.8853 17.9187 26.5382C16.1219 31.9937 18.5951 35.7871 18.5951 35.7871C9.89491 37.1139 2.1757 32.1298 0.316908 23.9009C-0.612488 19.634 0.510817 14.5606 3.57501 10.8423Z" fill="white"/>
</mask>
<g mask="url(#mask0_3026_4015)">
<path d="M-1.9086 15.6721C2.30467 6.46786 13.644 1.51061 21.6671 5.41748C23.2767 6.20125 24.281 9.16629 25.7909 9.53536C27.3009 9.90455 31.4568 9.95863 32.727 11.9701C33.3809 13.0057 33.1607 14.5139 32.0454 15.6721C31.0511 16.7046 26.1655 15.8567 25.4105 15.6721C24.6555 15.4875 30.5095 17.4716 30.3209 18.2098C30.2682 18.4161 28.8145 18.8892 28.3588 18.9495C28.3588 18.9495 25.4239 19.8448 23.9906 20.5953C20.2332 22.5627 19.1897 25.4763 18.2284 29.5556C17.7003 31.7965 18.6001 35.773 18.6001 35.773C18.6001 35.773 16.4625 36.1083 14.9135 36.1692C14.9135 36.1692 13.3335 36.6264 9.2132 34.7673C2.90869 31.9226 -6.12187 24.8763 -1.9086 15.6721Z" fill="#D55E00"/>
</g>
<path d="M9.31494 9.82429C9.07834 9.74636 8.85162 9.6482 8.63162 9.54167C8.4128 9.43243 8.20255 9.30889 8.00876 9.16474C7.81524 9.01995 7.64477 8.84978 7.49709 8.66119C7.35047 8.47029 7.24877 8.25207 7.16393 8.02148C7.20161 8.2616 7.27736 8.50455 7.41779 8.71401C7.55598 8.92321 7.73317 9.10729 7.9338 9.26007C8.13747 9.40873 8.35879 9.53226 8.59157 9.62669C8.82396 9.72137 9.06688 9.79144 9.31494 9.82429Z" fill="#E4E4E7"/>
<path d="M23.5527 10.5621C23.5527 10.5621 22.6234 8.38175 20.4547 9.69C20.4547 9.69 22.1588 12.1611 23.5527 10.5621Z" fill="#E4E4E7"/>
<path d="M27.5612 16.2829C27.7864 16.2271 28.085 16.0058 28.085 16.0058C28.085 16.0058 26.2651 15.7442 26.0301 15.672C25.7926 15.6074 24.982 15.4643 24.7431 15.3887C24.9344 15.5533 25.1282 15.6365 25.3946 15.7577C25.3946 15.7577 26.6082 16.2376 26.9595 16.2816C27.1926 16.3107 27.3334 16.3395 27.5612 16.2829Z" fill="#E4E4E7"/>
<path d="M31.1745 13.8094C30.3863 14.3768 29.481 11.4054 30.4565 11.4527C31.0273 11.4804 31.4511 11.7643 31.6359 12.3051C31.8207 12.8459 31.6779 13.4471 31.1745 13.8094Z" fill="#E4E4E7"/>
<path d="M11.2646 8.69421C11.2646 8.69421 13.5296 3.71102 9.75463 4.08008C5.97968 4.44914 7.11223 8.69421 7.86722 9.61693C8.62221 10.5398 11.2646 8.69421 11.2646 8.69421Z" fill="#D55E00"/>
<path d="M10.9241 7.50029C10.9241 7.50029 11.7504 4.8098 10.3731 5.00908C8.99594 5.20836 9.40907 7.50029 9.68453 7.99856C9.96 8.49683 10.9241 7.50029 10.9241 7.50029Z" fill="#E4E4E7"/>
<path d="M11.9089 5.49337C11.9399 5.79814 11.9403 6.09907 11.9121 6.38024C11.901 6.52112 11.8835 6.66024 11.8682 6.80112C11.853 6.94259 11.8306 7.08132 11.816 7.23059C11.9535 6.9902 12.0975 6.3956 12.1258 6.10292C12.1381 5.9554 12.1662 5.6106 12.1568 5.46289L11.9089 5.49337Z" fill="#E4E4E7"/>
<path d="M22.6636 18.5225C22.5508 18.5748 22.4595 18.6437 22.3732 18.7166C22.2883 18.7905 22.2113 18.8708 22.1414 18.9563C22.0713 19.0419 22.0086 19.1331 21.9538 19.2306C21.9002 19.329 21.8519 19.4315 21.8252 19.5508C21.9382 19.4988 22.0297 19.4299 22.1158 19.3568C22.2008 19.2829 22.2777 19.2026 22.3474 19.1168C22.4172 19.031 22.4799 18.9398 22.5347 18.8423C22.5881 18.744 22.6366 18.6416 22.6636 18.5225Z" fill="#E4E4E7"/>
<path d="M20.3149 19.5522C20.2038 19.5975 20.1135 19.6601 20.0281 19.7267C19.9441 19.7944 19.8678 19.8686 19.7984 19.9485C19.7288 20.0282 19.6664 20.1139 19.6117 20.206C19.5582 20.2991 19.5099 20.3965 19.4826 20.5113C19.5941 20.4663 19.6844 20.4037 19.7697 20.337C19.8537 20.2692 19.93 20.195 19.9992 20.1149C20.0685 20.0349 20.1309 19.9493 20.1856 19.8572C20.2389 19.764 20.2874 19.6668 20.3149 19.5522Z" fill="#E4E4E7"/>
<path d="M19.0254 22.2075C18.9213 22.2205 18.8345 22.2547 18.7516 22.2936C18.6698 22.3338 18.5946 22.3818 18.5248 22.4366C18.455 22.4913 18.3909 22.553 18.3335 22.6227C18.277 22.6935 18.2246 22.7693 18.1895 22.8663C18.2939 22.8534 18.3808 22.8195 18.4635 22.7805C18.5453 22.7403 18.6206 22.6923 18.6901 22.6373C18.7597 22.5823 18.8237 22.5205 18.8813 22.4509C18.9377 22.3799 18.9902 22.3043 19.0254 22.2075Z" fill="#E4E4E7"/>
<path d="M16.2349 20.9585C16.0782 20.9991 15.937 21.0578 15.7978 21.1185C15.6594 21.1806 15.5256 21.2478 15.3942 21.3196C15.2629 21.3913 15.1343 21.468 15.008 21.5509C14.8823 21.6353 14.7576 21.7225 14.6404 21.8323C14.8023 21.8212 14.9536 21.7813 15.1006 21.732C15.2471 21.6814 15.3882 21.6183 15.523 21.5442C15.6577 21.4702 15.7864 21.3855 15.907 21.2897C16.0267 21.1926 16.1405 21.0874 16.2349 20.9585Z" fill="#E4E4E7"/>
<path d="M15.2461 23.4604C15.1051 23.4983 14.9802 23.5451 14.8555 23.588L14.4889 23.7176L14.1212 23.8442C13.9968 23.8883 13.8701 23.9296 13.7364 23.988C13.8742 24.0376 14.018 24.0491 14.1602 24.0432C14.3025 24.0358 14.4434 24.0073 14.5774 23.9603C14.7115 23.9132 14.839 23.8479 14.9538 23.7656C15.0676 23.6818 15.1715 23.584 15.2461 23.4604Z" fill="#E4E4E7"/>
<path d="M8.09961 11.5298C7.95628 11.542 7.82546 11.5804 7.69821 11.6259C7.57174 11.6729 7.4508 11.7306 7.33527 11.7972C7.21973 11.8638 7.10987 11.9398 7.00685 12.0256C6.90475 12.1127 6.80753 12.2066 6.72783 12.3237C6.86892 12.2963 6.9946 12.2485 7.11737 12.1969C7.23923 12.1441 7.35621 12.0846 7.46938 12.0188C7.58267 11.9531 7.69228 11.8815 7.79833 11.8024C7.90359 11.7219 8.00687 11.6372 8.09961 11.5298Z" fill="#E4E4E7"/>
<path d="M7.49219 13.6665C7.37784 13.6827 7.28035 13.7167 7.18537 13.7533C7.09131 13.7912 7.00239 13.8346 6.91636 13.8832C6.83034 13.9317 6.74761 13.9856 6.66725 14.0465C6.58755 14.1089 6.5089 14.1748 6.43789 14.2641C6.55329 14.2738 6.65895 14.2549 6.76091 14.2272C6.86222 14.1983 6.95839 14.1573 7.0485 14.106C7.13861 14.0548 7.22279 13.9934 7.2988 13.922C7.37376 13.849 7.44318 13.769 7.49219 13.6665Z" fill="#E4E4E7"/>
<path d="M4.54932 13.819C4.44761 13.8126 4.35803 13.8335 4.27267 13.8619C4.18809 13.892 4.10958 13.9332 4.03778 13.9837C3.96598 14.034 3.90104 14.0938 3.84518 14.1627C3.79038 14.2328 3.74203 14.3095 3.71621 14.4061C3.81659 14.3891 3.89801 14.3557 3.97613 14.3198C4.05319 14.2827 4.12446 14.2403 4.19178 14.1926C4.25923 14.145 4.32273 14.0923 4.3832 14.0325C4.44274 13.9713 4.50084 13.9065 4.54932 13.819Z" fill="#E4E4E7"/>
<path d="M4.38916 15.2812C4.29523 15.2688 4.21237 15.2845 4.13372 15.3085C4.05586 15.3339 3.98394 15.371 3.91912 15.4175C3.85417 15.4638 3.79647 15.52 3.74852 15.5852C3.70162 15.6514 3.66184 15.7242 3.64616 15.8158C3.7397 15.8007 3.8132 15.7711 3.88342 15.7389C3.95258 15.7058 4.01582 15.6679 4.0751 15.6249C4.13451 15.582 4.19037 15.5342 4.24319 15.4794C4.29549 15.4234 4.34661 15.3638 4.38916 15.2812Z" fill="#E4E4E7"/>
<path d="M4.13916 16.6147C4.02152 16.6958 3.92812 16.7932 3.84156 16.8951C3.75646 16.9979 3.6815 17.1071 3.6159 17.2215C3.55029 17.3359 3.49431 17.4555 3.44938 17.5804C3.40578 17.7057 3.37008 17.8348 3.36138 17.9752C3.46928 17.8821 3.55332 17.7791 3.63302 17.6741C3.71128 17.5685 3.78175 17.4597 3.84591 17.3471C3.91007 17.2346 3.96803 17.1188 4.01901 16.9984C4.06855 16.877 4.11439 16.7532 4.13916 16.6147Z" fill="#E4E4E7"/>
<path d="M4.712 18.7607C4.6215 18.8309 4.55471 18.9084 4.49134 18.9866C4.42955 19.0655 4.37488 19.1468 4.32548 19.2311C4.27608 19.3153 4.23221 19.4025 4.19414 19.4947C4.15725 19.5878 4.12326 19.6835 4.10759 19.7955C4.21232 19.7471 4.294 19.679 4.3679 19.605C4.44062 19.5302 4.50267 19.4475 4.55418 19.3588C4.60582 19.2702 4.64705 19.1759 4.67603 19.0766C4.70343 18.9768 4.72227 18.8735 4.712 18.7607Z" fill="#E4E4E7"/>
<path d="M2.24574 20.3389C2.15458 20.3833 2.08779 20.4453 2.02864 20.5119C1.97094 20.5794 1.9243 20.6537 1.88808 20.7325C1.85185 20.8114 1.82642 20.895 1.81351 20.9821C1.80218 21.0695 1.79968 21.1596 1.82708 21.2558C1.90507 21.1918 1.95842 21.123 2.00743 21.0534C2.05499 20.9835 2.0949 20.9118 2.12849 20.8375C2.16222 20.7632 2.19015 20.6864 2.21162 20.605C2.23178 20.5229 2.24877 20.4383 2.24574 20.3389Z" fill="#E4E4E7"/>
<path d="M2.86002 21.6816C2.77254 21.7172 2.70891 21.7714 2.65319 21.8308C2.59891 21.891 2.55583 21.9585 2.52369 22.0306C2.49141 22.1026 2.47034 22.1795 2.46243 22.2594C2.45598 22.3396 2.45888 22.4221 2.49247 22.509C2.56558 22.4502 2.61393 22.3882 2.65819 22.326C2.70101 22.2634 2.73618 22.1996 2.76543 22.1333C2.79481 22.0669 2.81839 21.9983 2.83604 21.925C2.85211 21.8507 2.86568 21.774 2.86002 21.6816Z" fill="#E4E4E7"/>
<path d="M2.77198 26.3857C2.76289 26.526 2.78199 26.6585 2.80899 26.7882C2.83758 26.9175 2.87776 27.0431 2.92782 27.1647C2.97788 27.2864 3.03821 27.404 3.10948 27.5164C3.1822 27.6281 3.26256 27.7363 3.36914 27.8308C3.36255 27.6903 3.33304 27.5617 3.29932 27.4352C3.26415 27.3095 3.22146 27.1875 3.17206 27.0681C3.12253 26.9488 3.06667 26.832 3.00252 26.7177C2.93678 26.6041 2.86669 26.4915 2.77198 26.3857Z" fill="#E4E4E7"/>
<path d="M4.84106 27.2939C4.84027 27.4069 4.86016 27.5064 4.88282 27.6036C4.90706 27.7001 4.93762 27.7927 4.97372 27.8832C5.00995 27.9736 5.05197 28.0617 5.1015 28.1485C5.15249 28.235 5.20756 28.3208 5.28699 28.4029C5.314 28.2928 5.31084 28.1878 5.29819 28.0851C5.28409 27.9829 5.25709 27.8837 5.21875 27.7889C5.18042 27.6941 5.13115 27.6035 5.07015 27.5192C5.00797 27.4358 4.93736 27.3567 4.84106 27.2939Z" fill="#E4E4E7"/>
<path d="M12.4354 34.8402C12.4939 34.8891 12.5544 34.9216 12.6149 34.9516C12.6758 34.9806 12.7374 35.0046 12.8003 35.0248C12.8633 35.045 12.9276 35.0611 12.9946 35.0729C13.062 35.0837 13.1308 35.0921 13.2085 35.0865C13.1631 35.0252 13.1071 34.9818 13.0481 34.9442C12.9887 34.9076 12.9252 34.8789 12.859 34.858C12.7929 34.837 12.7241 34.8235 12.6534 34.8188C12.5826 34.815 12.5104 34.8175 12.4354 34.8402Z" fill="#E4E4E7"/>
<path d="M6.13099 31.356C6.19527 31.4818 6.27985 31.5868 6.36983 31.6857C6.46099 31.7835 6.56019 31.8723 6.66611 31.9529C6.77189 32.0335 6.88453 32.1055 7.00401 32.1676C7.12429 32.2286 7.24931 32.2825 7.39014 32.3119C7.31215 32.1937 7.22059 32.0969 7.12653 32.0042C7.03155 31.9127 6.93195 31.8282 6.82775 31.7494C6.72367 31.6705 6.61526 31.5971 6.50104 31.5297C6.38564 31.4636 6.2672 31.4008 6.13099 31.356Z" fill="#E4E4E7"/>
<path d="M8.38631 31.1235C8.44374 31.2216 8.51198 31.2978 8.58154 31.3707C8.65202 31.4424 8.72605 31.5073 8.80378 31.5677C8.8815 31.6281 8.96318 31.6836 9.05066 31.7343C9.13919 31.7839 9.23087 31.8311 9.3418 31.8631C9.3086 31.7545 9.25182 31.6653 9.18819 31.5828C9.12351 31.5012 9.04907 31.4288 8.96726 31.3657C8.88546 31.3026 8.79614 31.2485 8.70024 31.2056C8.60341 31.1641 8.50184 31.1305 8.38631 31.1235Z" fill="#E4E4E7"/>
<path d="M9.61224 33.7446C9.64346 33.8394 9.69615 33.9133 9.75464 33.9805C9.81419 34.0463 9.8823 34.1026 9.95673 34.1494C10.031 34.1963 10.1118 34.2332 10.1978 34.2587C10.2846 34.2828 10.3753 34.2987 10.4766 34.2867C10.4235 34.2017 10.362 34.1398 10.299 34.082C10.2354 34.0256 10.169 33.9762 10.0989 33.9326C10.0288 33.8888 9.95528 33.8503 9.87624 33.8173C9.79627 33.7856 9.71328 33.7565 9.61224 33.7446Z" fill="#E4E4E7"/>
<path d="M11.0614 33.353C11.0842 33.4429 11.1295 33.5125 11.1812 33.5752C11.2339 33.6367 11.2957 33.6885 11.3638 33.7305C11.4318 33.7725 11.5063 33.8043 11.5859 33.824C11.666 33.8423 11.7499 33.8518 11.8428 33.8325C11.7942 33.7529 11.7388 33.697 11.6826 33.6449C11.6257 33.5942 11.5665 33.5506 11.5038 33.5124C11.4411 33.4741 11.3752 33.4409 11.3038 33.4128C11.2311 33.386 11.1556 33.3615 11.0614 33.353Z" fill="#E4E4E7"/>
<path d="M50.88 12.52V16.936C50.88 18.664 49.888 19.176 49.376 19.24V19.88C49.856 19.944 50.88 20.456 50.88 22.184V27.88C50.88 31.08 50.24 33 47.68 33H40.8C40.704 33 40.64 32.936 40.64 32.84V7.56C40.64 7.464 40.704 7.4 40.8 7.4H47.68C50.24 7.4 50.88 9.32 50.88 12.52ZM44.8 11.24V17.48H46.72V11.24H44.8ZM46.72 29.16V21.64H44.8V29.16H46.72ZM59.3713 22.12H56.3313V29.16H60.3313C60.4273 29.16 60.4913 29.224 60.4913 29.32V32.84C60.4913 32.936 60.4273 33 60.3313 33H52.3313C52.2353 33 52.1713 32.936 52.1713 32.84V7.56C52.1713 7.464 52.2353 7.4 52.3313 7.4H60.0113C60.1073 7.4 60.1713 7.464 60.1713 7.56V11.08C60.1713 11.176 60.1073 11.24 60.0113 11.24H56.3313V18.28H59.3713C59.4673 18.28 59.5312 18.344 59.5312 18.44V21.96C59.5312 22.056 59.4673 22.12 59.3713 22.12ZM71.237 7.56L72.645 32.84C72.645 32.968 72.581 33 72.485 33H68.645C68.549 33 68.485 32.968 68.485 32.84L68.165 26.44H65.925L65.605 32.84C65.605 32.968 65.541 33 65.445 33H61.605C61.509 33 61.445 32.968 61.445 32.84L62.853 7.56C62.853 7.432 62.917 7.4 63.013 7.4H71.077C71.173 7.4 71.237 7.432 71.237 7.56ZM66.725 11.24L66.149 22.6H67.941L67.365 11.24H66.725ZM84.2328 32.808C84.2968 32.904 84.2328 33 84.1368 33H80.2328C80.1688 33 80.0728 32.936 80.0408 32.872C79.6248 32.232 79.6248 31.112 79.6248 30.504L79.6888 21.48H77.7688V32.84C77.7688 32.936 77.7048 33 77.6088 33H73.7688C73.6728 33 73.6088 32.936 73.6088 32.84V7.56C73.6088 7.464 73.6728 7.4 73.7688 7.4H80.6488C83.2088 7.4 83.8488 9.32 83.8488 12.52V16.936C83.8488 18.664 82.8568 19.176 82.3448 19.24V19.88C82.8248 19.944 83.8488 20.456 83.8488 22.184V30.504C83.8488 31.048 83.8488 32.168 84.2328 32.808ZM77.7688 17.64H79.6888V11.24H77.7688V17.64ZM89.3275 33H85.4875C85.3915 33 85.3275 32.936 85.3275 32.84V7.56C85.3275 7.464 85.3915 7.4 85.4875 7.4H89.3275C89.4235 7.4 89.4875 7.464 89.5195 7.56L91.7275 18.28H92.3675V7.56C92.3675 7.464 92.4315 7.4 92.5275 7.4H96.6875C96.7835 7.4 96.8475 7.464 96.8475 7.56V32.84C96.8475 32.936 96.7835 33 96.6875 33H92.9755C92.8795 33 92.8155 32.936 92.7835 32.84L90.1275 20.84H89.4875V32.84C89.4875 32.936 89.4235 33 89.3275 33ZM105.34 22.12H102.3V29.16H106.3C106.396 29.16 106.46 29.224 106.46 29.32V32.84C106.46 32.936 106.396 33 106.3 33H98.3C98.204 33 98.14 32.936 98.14 32.84V7.56C98.14 7.464 98.204 7.4 98.3 7.4H105.98C106.076 7.4 106.14 7.464 106.14 7.56V11.08C106.14 11.176 106.076 11.24 105.98 11.24H102.3V18.28H105.34C105.436 18.28 105.5 18.344 105.5 18.44V21.96C105.5 22.056 105.436 22.12 105.34 22.12ZM113.501 16.392V11.24H111.581V15.88C111.581 16.232 111.549 16.84 112.221 17.16L114.781 18.44C116.733 19.4 117.661 20.552 117.661 23.144V27.88C117.661 31.08 117.021 33 114.461 33H110.621C108.061 33 107.421 31.08 107.421 27.88V22.728C107.421 22.632 107.485 22.568 107.581 22.568H111.421C111.517 22.568 111.581 22.632 111.581 22.728V29.16H113.501V23.24C113.501 22.888 113.533 22.28 112.861 21.96L110.301 20.68C108.349 19.72 107.421 18.568 107.421 15.976V12.52C107.421 9.32 108.061 7.4 110.621 7.4H114.461C117.021 7.4 117.661 9.32 117.661 12.52V16.392C117.661 16.488 117.597 16.552 117.501 16.552H113.661C113.565 16.552 113.501 16.488 113.501 16.392ZM118.8 7.4H127.76C127.856 7.4 127.92 7.464 127.92 7.56V11.08C127.92 11.176 127.856 11.24 127.76 11.24H125.36V32.84C125.36 32.936 125.296 33 125.2 33H121.36C121.264 33 121.2 32.936 121.2 32.84V11.24H118.8C118.704 11.24 118.64 11.176 118.64 11.08V7.56C118.64 7.464 118.704 7.4 118.8 7.4Z" fill="#18181B"/>
</svg>
