<svg width="862" height="1009" viewBox="0 0 862 1009" fill="none" xmlns="http://www.w3.org/2000/svg">
<path d="M808.836 734.904C808.472 734.957 808.113 735.023 807.763 735.094C807.765 735.1 807.773 735.121 807.773 735.121L810.687 739.066C810.119 737.647 809.541 736.24 808.836 734.904ZM69.8143 636.872C72.5069 638.381 75.1267 640.289 77.6254 642.465C83.4849 647.593 90.2685 651.363 97.0193 655.392C100.029 657.19 103.082 658.047 106.206 659.479C109.224 660.873 110.554 663.191 113.208 664.599C117.941 667.133 130.536 665.246 133.549 668.885C124.924 673.525 115.245 675.419 105.534 675.152C118.18 685.298 131.595 692.517 145.421 695.474C145.832 696.56 146.27 697.658 146.937 698.569C147.093 698.533 147.236 698.526 147.372 698.497C146.891 697.593 146.476 696.555 146.015 695.62C146.752 695.78 147.47 695.871 148.211 696L148.163 698.375L147.374 698.504C149.371 702.242 151.58 705.807 154.385 709.647C155.945 711.801 157.538 713.942 159.1 716.041C160.915 718.483 162.729 719.477 165.056 721.403C168.806 718.267 162.524 712.204 164.56 708.051C164.824 707.489 166.368 707.322 166.526 706.684C166.826 705.545 165.959 704.471 165.597 703.452C165.007 701.71 162.704 698.219 164.339 697.054C164.919 697.936 165.729 698.493 166.424 699.232C166.199 701.344 166.377 703.542 167.063 705.032C169.391 709.931 176.878 708.442 181.149 708.168L177.967 702.883C179.503 704.383 181.236 705.631 183.288 706.158C190.639 708.033 188.533 698.435 185.422 695.087C184.476 694.089 183.268 693.212 181.937 692.498C188.853 689.783 195.796 685.841 202.698 680.365C229.661 658.992 225.953 613.774 206.58 571.003C213.035 575.552 220.855 575.901 228.855 573.493C226.208 571.736 224.432 568.646 221.799 566.744C218.49 564.335 214.265 563.227 210.602 561.53C205.344 559.11 201.133 555.069 198.93 549.791C197.262 545.805 192.524 540.184 188.456 538.292C188.422 538.282 188.387 538.272 188.333 538.27C180.194 526.135 170.974 514.864 161.031 505.237C158.973 503.249 156.98 501.252 155.012 499.26C155.555 502.954 154.364 506.617 150.701 508.418L150.795 508.482C150.371 508.643 149.86 508.836 149.354 509.043C149.268 509.06 149.209 509.128 149.114 509.141C149.094 509.149 149.078 509.147 149.058 509.155C144.016 511.091 135.686 514.171 131.85 510.35C129.67 508.161 127.792 502.583 128.532 499.537C129.945 493.555 139.447 489.485 146.267 490.259C141.116 484.809 136.291 479.49 131.783 474.436C131.201 477.962 129.398 481.001 124.602 480.233C119.332 479.389 116.11 472.593 115.367 467.233C114.001 465.469 113.193 463.455 112.173 460.573C111.225 458.003 110.461 454.254 110.712 450.992C96.4726 435.878 85.4643 427.44 75.0575 432.491C67.3668 418.939 59.8526 405.305 53.1722 391.232C45.9803 376.05 40.42 360.12 33.546 344.803C31.1026 339.315 23.9117 317.953 13.4662 319.79C-8.47513 323.615 11.3399 410.874 13.8198 420.933C19.2148 442.751 27.4619 464.222 38.719 483.731C39.9818 483.716 40.9074 483.074 40.6652 480.907C43.5065 483.563 45.6868 486.707 48.0394 489.779C51.9745 494.941 56.4318 499.452 61.3621 503.668C63.3945 505.404 69.8488 509.645 67.6925 513.072C65.6192 516.414 59.9937 514.041 57.8472 512.186C54.0863 508.969 45.2068 486.943 38.0414 491.986C32.3505 511.059 29.5743 533.307 33.2308 557.176C37.2072 555.411 41.9165 555.28 45.4193 557.855C51.6921 562.45 50.297 580.338 44.3893 584.845C43.3757 585.621 42.2141 585.944 41.0193 586.18C43.9945 594.071 47.4607 602 52.1403 609.987C57.5745 619.298 63.5112 628.312 69.8143 636.872ZM179.189 565.922C186.013 565.731 182.059 572.805 180.762 575.961C180.013 577.785 179.5 580.168 179.175 582.625C180.699 582.242 182.279 580.951 183.685 578.224L186.945 590.977C186.878 591.003 186.824 590.961 186.742 590.969C186.912 591.175 187.114 591.322 187.238 591.568C188.448 593.63 188.452 597.466 184.791 595.652C183.159 594.851 182.272 591.734 182.236 590.153C183.774 590.642 185.125 591.349 186.742 590.969C184.575 588.367 179.778 588.023 179.33 590.519C178.817 588.085 178.798 585.349 179.173 582.619C172.308 584.227 166.162 566.3 179.189 565.922ZM190.824 631.361C190.673 630.27 189.945 629.096 189.712 628.052L189.146 626.555C191.048 625.628 191.04 621.924 190.99 618.376C189.834 613.018 190.544 604.851 196.083 605.408C198.373 605.629 200.569 609.222 202.135 610.741C204.591 613.111 207.14 614.768 209.85 616.771C216.509 621.737 218.08 633.479 218.777 641.222C219.064 644.481 218.932 649.524 214.57 648.885C211.765 648.481 208.053 644.112 206.919 641.721C204.73 643.496 205.407 651.084 205.315 653.831C205.192 658.163 203.818 660.446 201.671 655.641C197.447 646.134 195.504 635.117 190.202 626.156C189.531 626.679 189.533 627.333 189.707 628.038L192.742 636.068C189.681 637.04 191.073 632.893 190.824 631.361ZM58.7724 588.177C61.3825 586.458 67.5608 586.288 69.4158 589.324C73.5118 596.052 63.3625 599.811 59.3736 595.401L59.2365 596.686C55.0151 595.708 55.9927 590.037 58.7724 588.177ZM677.07 505.403C676.416 506.236 676.195 506.974 675.985 507.678C675.254 510.22 677.104 511.717 680.065 512.046C680.775 512.664 681.476 513.115 682.272 512.961C685.581 512.257 683.167 505.995 682.396 504.299C681.072 501.409 678.646 503.328 677.07 505.403ZM598.196 202.377C602.329 202.001 602.821 198.564 601.523 195.132C600.686 192.937 596.667 189.709 594.66 192.717C591.882 196.881 599.564 198.716 601.905 199.049L592.976 198.532C593.267 201.112 595.839 202.59 598.196 202.377ZM600.57 109.689C603.693 106.705 604.299 97.5071 601.414 94.0665C597.489 89.3779 591.273 94.594 589.717 98.673C588.846 100.967 587.956 104.509 589.333 106.809C590.302 108.438 592.121 109.161 594.013 109.632L589.301 108.678C591.881 111.864 597.498 112.607 600.57 109.689ZM610.897 238.478C611.269 239.3 612.327 242.383 613.486 241.483C612.492 238.06 611.816 234.401 611.275 231.038C610.736 227.72 609.682 219.318 606.111 217.702C603.473 216.518 601.432 219.154 600.85 221.478C600.131 224.377 601.661 226.126 603.541 228.151C606.502 231.347 609.044 234.47 610.897 238.478ZM614.022 241.011C613.843 241.371 613.669 241.337 613.49 241.474C613.619 241.895 613.729 242.308 613.843 242.712L614.022 241.011ZM614.358 244.482C614.138 243.941 614.046 243.29 613.843 242.712L613.818 243.053L614.358 244.482ZM663.194 528.125C664.931 528.123 668.587 527.727 669.463 525.917C670.671 523.457 667.438 519.786 666.064 518.063C662.032 512.968 658.243 507.665 651.95 505.436C649.762 504.652 647.334 503.536 647.486 506.807C647.616 510.118 649.907 513.76 651.773 516.399C651.921 515.834 651.796 515.319 651.406 514.858L652.163 516.86C653.697 521.69 657.434 528.098 663.194 528.125ZM720.713 494.354C718.87 488.076 710.219 491.223 707.516 495.42C706.637 496.777 706.617 497.964 706.979 499.044L705.607 498.222C704.629 500.11 704.041 500.648 705.269 502.919C706.769 505.689 709.734 506.656 712.597 507.092C714.39 507.362 716.555 507.129 718.185 506.113C718.644 506.27 719.114 506.455 719.448 506.606L718.418 505.978C718.931 505.607 719.385 505.181 719.755 504.633C721.346 502.213 721.5 497.007 720.713 494.354ZM633.016 501.15C632.836 499.23 629.757 496.148 628.587 494.679C626.699 492.249 625.775 489.416 623.757 487.089C622.427 485.542 620.353 482.843 618.532 485.712C617.521 487.288 618.774 491.215 619.365 492.779L621.465 488.102C623.266 492.907 626.697 501.659 633.016 501.15ZM432.472 432.483L433.817 431.974C437.653 429.777 439.049 426.86 439.569 423.558C436.503 424.517 433.47 425.525 430.624 426.986C425.337 429.716 427.969 431.249 432.472 432.483ZM315.172 17.9393L314.405 15.9099C317.44 16.5351 320.627 15.5078 321.205 11.7292C322.029 6.26252 317.394 -3.21277 310.974 1.46408C308.498 3.27105 306.76 7.37985 306.96 10.4098C307.258 15.2671 310.881 17.0804 315.172 17.9393ZM632.641 482.097C634.796 484.665 639.011 485.931 640.444 488.887C642.034 492.139 640.481 495.454 642.777 498.762C647.645 496.853 646.661 488.433 644.881 484.051C647.755 484.983 650.735 485.606 653.852 485.961C700.414 490.992 724.211 460.166 733.75 418.995C728.068 422.268 721.875 423.561 714.852 424.12C709.672 424.529 706.64 424.951 701.672 426.898C697.536 428.546 693.244 430.616 688.794 431.127C688.177 427.969 703.287 423.645 706.333 421.33C712.22 416.892 718.724 411.991 723.323 406.138C727.791 400.465 732.501 395.68 737.928 391.101C738.831 380.534 739.087 369.719 738.675 358.948C737.189 319.039 719.665 289.4 698.884 268.836C696.818 264.347 694.636 260.078 692.881 256.21C687.163 243.462 681.521 230.691 676.179 217.8C668.502 199.342 660.518 180.946 651.278 163.032C642.798 146.619 634.026 125.63 616.845 113.655C604.703 105.206 603.045 118.07 604.01 125.603C606.228 142.719 613.922 158.844 618.761 175.324C624.276 194.145 626.793 213.575 629.382 233.016C628.612 233.153 627.94 233.43 627.24 233.672C631.061 239.471 632.319 248.065 632.874 254.251C633.162 257.517 633.038 262.557 628.671 261.927C625.857 261.519 622.15 257.141 621.015 254.75C618.829 256.532 619.506 264.12 619.412 266.86C619.284 271.201 617.926 273.486 615.77 268.676C614.45 265.692 613.344 262.566 612.311 259.404C609.996 269.51 608.116 282.049 605.613 296.273C609.11 294.927 612.77 294.361 614.62 298.97C616.326 303.28 611.82 306.471 611.978 310.834C612.045 313.39 613.089 315.909 612.303 318.487C611.565 320.946 609.569 322.217 607.996 324.075C605.402 327.137 605.221 332.09 601.192 333.613C600.068 334.038 598.89 334.237 597.697 334.233C586.365 384.204 597.322 447.949 627.744 474.123C629.192 477.02 630.765 479.839 632.641 482.097ZM701.907 310.045L702.019 309.794C702.031 309.296 702.239 309.033 702.466 308.8L704.429 304.414C711.11 295.323 720.103 312.767 722.168 318.29C723.795 322.615 726.006 327.081 725.127 331.813C724.469 335.36 721.09 344.666 716.646 344.604C716.319 343.025 717.981 342.705 718.052 341.183C718.186 338.528 717.194 340.013 716.213 338.434C714.789 336.152 713.001 333.476 711.429 331.026C710.059 328.886 702.134 314.674 702.047 309.968C701.972 309.974 701.993 310.027 701.907 310.045ZM667.045 281.173C668.1 283.07 669.298 284.898 670.557 286.703C671.885 287.041 673.353 287.958 674.15 288.396C676.15 289.459 678.319 290.234 680.271 291.33C683.026 292.862 684.791 296.657 685.126 299.759C683.696 300.43 680.903 298.635 679.747 297.855C677.432 296.287 675.871 294.211 674.298 291.962C673.091 290.253 671.819 288.476 670.557 286.703C670.23 286.611 669.886 286.595 669.577 286.611L669.831 287.139C669.202 287.47 668.841 287.328 668.792 286.731C669.014 286.585 669.295 286.618 669.577 286.611L667.045 281.173ZM664.575 275.78C664.714 276.228 664.95 276.648 665.118 277.093L664.812 276.407L664.575 275.78ZM676.561 468.384L677.941 469.227C677.572 468.149 677.59 466.955 678.468 465.598C681.162 461.398 689.82 458.248 691.66 464.519C692.466 467.18 692.303 472.382 690.709 474.795C690.347 475.364 689.884 475.785 689.366 476.143L690.395 476.771C690.064 476.627 689.596 476.449 689.146 476.295C687.521 477.303 685.359 477.542 683.557 477.252C680.693 476.832 677.715 475.87 676.225 473.089C674.991 470.82 675.57 470.277 676.561 468.384ZM602.179 370.128L602.455 370.147C602.359 368.449 603.01 366.369 603.468 365.302C604.859 362.025 610.143 358.371 610.568 364.213C610.696 366.261 609.994 368.776 608.708 370.804L610.253 370.967C609.562 371.274 608.639 371.762 607.65 372.174C606.162 373.792 604.215 374.783 601.894 374.196C600.806 373.921 598.518 372.729 598.497 371.35C598.48 369.576 601.052 369.975 602.179 370.128ZM597.322 389.517C597.965 389.528 598.237 390.004 598.292 390.576C598.727 390.974 599.224 391.295 599.795 391.441L602.143 390.554C597.848 391.985 596.839 388.991 598.654 385.454C599.767 383.314 604.115 379.136 606.993 380.668C610.068 382.295 607.474 388.693 605.768 390.016C604.245 391.193 601.766 391.937 599.788 391.444L597.905 392.156C598.177 391.737 598.329 391.102 598.285 390.579C597.949 390.259 597.539 390.029 597.322 389.517ZM608.755 431.314L604.519 428.284C604.084 428.333 603.657 428.363 603.206 428.411C602.045 422.531 610.74 417.996 615.498 420.212C619.563 422.097 624.302 427.718 625.977 431.701C628.175 436.988 632.376 441.002 637.628 443.448C641.314 445.144 645.544 446.227 648.843 448.648C651.481 450.563 653.238 453.644 655.893 455.4C646.178 458.317 636.609 457.572 629.598 449.619C626.573 446.193 624.5 443.047 621.27 439.791C619.004 437.519 611.893 430.667 608.755 431.314ZM95.7184 676.235C95.6169 669.885 89.9406 665.18 83.8942 669.238C81.3237 670.98 79.4756 674.43 78.6192 677.35C78.1048 679.101 78.2351 680.524 78.6284 681.809L76.7093 679.722C78.0713 683.853 79.5492 688.434 84.4414 689.112C92.19 690.167 95.8485 683.067 95.7184 676.235ZM14.1474 505.695C17.8244 507.511 17.8038 503.674 16.6072 501.606C16.4725 501.372 16.2641 501.227 16.1009 501.019C14.4949 501.388 13.1386 500.667 11.5988 500.194C11.6379 501.782 12.5282 504.89 14.1474 505.695ZM203.523 700.505C203.061 701.743 204.484 703.74 205.68 704.035C207.232 704.419 208.13 703.094 209.252 702.3C210.637 701.306 211.882 700.959 213.429 700.374C216.692 699.141 217.985 696.787 218.431 693.999C217.841 694.006 217.285 694.039 216.633 694.023C215.589 693.986 202.788 693.069 205.775 696.417L207.903 699.504C206.491 699.267 204.134 698.786 203.523 700.505ZM583.84 896.579L578.848 894.945C578.741 895.009 578.624 894.983 578.549 895.05C579.982 896.643 581.949 895.807 583.84 896.579ZM229.922 687.343C231.272 683.774 233.019 675.299 227.418 674.473C223.598 673.906 219.479 676.026 218.613 679.859C217.708 683.869 219.192 689.504 218.431 693.999C223.721 694.002 227.719 693.107 229.922 687.343ZM16.1009 501.019C16.1774 500.998 16.2382 501.037 16.3198 501.029L13.0368 488.276C11.6391 490.986 10.0666 492.297 8.54065 492.673C8.16761 495.388 8.19212 498.137 8.68868 500.57C9.15673 498.065 13.9282 498.404 16.1009 501.019ZM8.53808 492.666C8.86904 490.206 9.38302 487.824 10.127 486.009C11.4247 482.852 15.3729 475.765 8.55556 475.954C-4.47124 476.332 1.66153 494.264 8.53808 492.666ZM619.58 877.028C615.85 876.558 613.293 880.145 609.985 881.38C607.677 882.252 604.838 883.017 602.356 883.246C600.209 883.403 598.661 882.439 596.655 882.319C591.955 882.007 589.388 886.831 584.844 887.439C579.178 888.17 577.108 888.714 575.153 894.893C575.843 895.518 576.395 895.31 576.8 894.286L578.848 894.945C583.22 892.437 588.958 894.884 593.825 893.83C598.559 892.788 603.356 890.204 608.243 890.237C611.595 890.257 615.911 892.909 618.886 890.59C621.784 888.331 620.872 882.766 626.355 885.718C624.318 889.909 625.528 894.067 625.761 898.526C626.021 903.852 629.499 906.136 631.805 899.932C635.277 890.529 630.475 878.435 619.58 877.028ZM844.459 668.407C844.913 666.802 844.964 664.618 844.948 662.42C844.688 661.224 844.538 659.87 844.494 658.515C828.318 593.267 786.235 571.001 735.047 559.689C735.96 555.984 734.819 551.623 731.328 548.773C725.956 544.347 712.641 548.17 709.423 554.911C685.034 551 659.364 548.275 633.92 543.791C633.556 543.497 633.102 543.152 632.857 542.929C627.917 538.709 623.466 534.196 619.531 529.033C617.174 525.948 614.998 522.817 612.16 520.169C612.701 524.957 607.51 522.512 605.515 521.363C603.311 520.069 599.026 516.541 596.535 518.901C594.502 520.825 597.515 525.358 599.14 526.993C601.674 529.526 604.603 531.54 607.122 534.094C611.931 525.402 618.095 533.776 622.953 541.726C606.223 538.348 589.702 534.037 573.854 527.868C576.159 532.622 580.059 536.31 584.968 538.577C588.647 540.276 592.864 541.364 596.169 543.782C598.805 545.691 600.57 548.776 603.218 550.534C593.504 553.451 583.935 552.706 576.935 544.742C573.906 541.325 571.836 538.17 568.602 534.923C566.343 532.648 559.233 525.797 556.088 526.446L551.849 523.409C551.43 523.46 551.004 523.49 550.546 523.54C550.129 521.463 550.986 519.559 552.435 518.064C551.288 517.449 550.197 516.698 549.051 516.068C551.951 515.442 552.187 511.469 551.925 508.64C551.234 500.894 549.656 489.154 543.003 484.202C540.283 482.194 537.741 480.535 535.272 478.171C533.719 476.646 531.52 473.047 529.23 472.826C523.696 472.259 522.984 480.442 524.155 485.818C524.178 489.338 524.205 493.05 522.296 493.979L522.86 495.469C522.688 494.771 522.689 494.124 523.36 493.6C524.853 496.126 526.064 498.843 527.156 501.628C526.263 500.933 525.322 500.356 524.441 499.633L522.86 495.469C523.096 496.52 523.821 497.687 523.981 498.782C524.007 498.911 523.972 499.125 523.975 499.294C522.902 498.428 521.809 497.654 520.715 496.812C520.711 497.514 520.77 498.239 520.638 498.967C519.982 502.521 516.599 511.814 512.155 511.752C511.838 510.162 513.487 509.846 513.564 508.322C513.688 505.679 512.693 507.157 511.71 505.571C510.291 503.303 508.504 500.611 506.926 498.163C505.942 496.64 501.597 488.866 499.19 482.864C469.517 467.272 438.742 465.158 410.369 473.079C414.825 484.44 425.464 503.859 412.068 510.033C401.701 514.784 405.92 502.778 397.955 501.559C393.06 500.812 383.643 500.773 382.901 507.087L379.689 506.768C379.448 504.239 382.078 502.228 383.351 500.306C385.109 497.676 385.793 494.705 388.055 492.371C392.706 487.654 396.373 490.174 402.219 490.407C404.341 490.507 407.127 491.126 408.963 489.414C410.92 487.634 409.963 485.368 409.869 482.923C409.767 480.457 409.951 477.891 409.699 475.435C409.644 474.924 409.65 474.105 409.623 473.322C390.442 478.816 372.371 488.852 356.482 502.364C360.592 505.04 363.605 509.064 366.738 513.02C368.109 514.736 371.335 518.41 370.137 520.874C369.259 522.678 365.596 523.076 363.866 523.075C358.108 523.056 354.375 516.638 352.825 511.806L352.071 509.81C352.463 510.279 352.583 510.78 352.442 511.342C351.732 510.339 351.012 509.124 350.33 507.91C332.75 524.473 318.381 545.462 308.616 569.073C307.78 568.264 306.902 567.609 305.997 567.289C301.595 565.67 305.639 577.588 299.191 572.612C297.189 571.058 294.983 567.499 292.077 567.704C289.831 567.844 288.305 570.131 288.589 572.266C289.067 575.769 293.142 579.268 295.239 581.866C296.917 583.905 298.498 586.013 300.078 588.097L299.383 592.035C299.9 589.844 300.594 589.543 301.394 589.85C298.592 600.009 296.588 610.491 295.609 621.264C294.949 628.426 293.148 635.702 290.622 643.053C291.428 643.111 292.213 643.253 292.881 643.579C296.959 645.458 301.701 651.087 303.362 655.074C305.57 660.366 309.77 664.38 315.034 666.814C318.704 668.509 322.923 669.603 326.228 672.022C328.869 673.944 330.63 677.015 333.291 678.768C323.567 681.681 314.001 680.943 306.991 672.974C303.972 669.562 301.901 666.422 298.659 663.155C296.666 661.158 290.913 655.619 287.404 654.757C285.312 649.568 281.517 645.447 275.981 644.896C273.688 644.646 272.06 645.261 270.877 646.341C270.717 646.224 270.616 646.038 270.465 645.903C270.504 646.312 270.456 646.569 270.425 646.874C269.993 647.399 269.59 647.96 269.304 648.607C267.749 649.11 265.135 647.848 263.839 647.105C261.63 645.798 257.35 642.284 254.859 644.643C252.813 646.573 255.825 651.105 257.448 652.734C260 655.276 262.899 657.27 265.43 659.835C266.361 658.15 267.358 657.087 268.362 656.569C268.537 658.76 268.93 660.878 269.385 662.447C270.687 666.971 272.836 671.09 276.019 674.141C275.395 675.255 274.824 676.349 274.164 677.47C276.12 679.127 278.123 680.581 280.24 682.154C286.904 687.094 288.476 698.837 289.177 706.57C289.466 709.836 289.344 714.884 284.978 714.253C282.166 713.852 278.458 709.474 277.326 707.089C275.132 708.851 275.796 716.445 275.723 719.2C275.577 723.532 274.23 725.806 272.073 720.996C268.491 712.964 266.423 703.914 262.713 695.869C262.364 696.409 262.015 696.95 261.643 697.491L263.134 701.435C260.803 702.162 261.055 699.963 261.196 698.199C259.639 700.568 258.046 702.965 256.455 705.347C257.557 707.427 258.422 709.35 258.904 710.624C260.528 714.942 262.751 719.419 261.863 724.147C261.212 727.691 257.829 737.006 253.382 736.938C253.061 735.356 254.727 735.043 254.793 733.531C254.925 730.869 253.928 732.34 252.949 730.768C251.518 728.488 249.73 725.812 248.163 723.353C247.871 722.886 247.189 721.733 246.403 720.304C239.137 731.042 231.816 742.039 224.879 753.238C223.571 753.093 222.169 753.33 220.754 753.818C219.446 752.147 218.06 750.514 216.489 749.043C217.014 753.83 211.853 751.403 209.86 750.238C207.657 748.944 203.363 745.436 200.883 747.783C198.836 749.712 201.849 754.245 203.481 755.878C204.985 757.375 206.638 758.677 208.258 760.014C199.35 764.413 198.352 779.324 203.33 787.328C203.796 788.093 204.455 788.676 205.109 789.268C197.042 806.55 190.971 824.333 188.872 842.758C189.383 843.358 189.862 843.932 190.272 844.347C192.721 846.697 195.29 848.368 197.987 850.377C204.641 855.329 206.226 867.067 206.93 874.807C207.207 878.062 207.09 883.123 202.727 882.483C199.918 882.089 196.208 877.704 195.078 875.303C192.882 877.081 193.553 884.672 193.463 887.426C193.427 888.672 193.247 889.557 192.997 890.299C189.595 887.116 184.576 889.113 180.712 886.66C175.886 883.575 173.948 882.659 168.503 886.15C168.613 887.072 169.171 887.269 170.147 886.738L171.286 888.55C176.267 889.465 179.089 895.017 183.517 897.335C187.819 899.585 193.156 900.665 196.894 903.844C197.279 904.169 197.595 904.62 197.963 905.043C200.12 910.161 202.687 915.325 205.643 920.541C205.441 920.841 205.247 921.161 205.016 921.464C201.817 925.694 203.017 929.702 208.762 926.413C208.84 926.376 208.908 926.312 208.986 926.252C211.005 929.48 213.074 932.735 215.411 935.99C217.994 934.544 221.167 934.03 223.459 935.09C227.517 936.978 232.249 942.602 233.93 946.582C236.142 951.864 240.336 955.881 245.595 958.323C249.272 960.016 253.496 961.124 256.796 963.529C258.091 964.473 259.174 965.689 260.247 966.902C259.742 967.293 259.193 967.57 258.698 968.235L257.333 971.294C253.436 971.642 249.611 971.508 246.099 970.17C250.022 973.634 253.961 976.652 257.915 979.442C260.313 985.44 264.693 993.286 265.691 994.827C267.261 997.293 269.049 999.969 270.473 1002.25C271.454 1003.83 272.446 1002.35 272.325 1005C272.248 1006.52 270.592 1006.84 270.913 1008.42C275.357 1008.48 278.742 999.171 279.393 995.627C279.648 994.267 279.598 992.914 279.438 991.596C282.503 992.911 285.578 994.152 288.658 995.099C288.066 992.842 287.696 990.624 287.708 987.93C287.713 987.027 287.742 985.336 287.94 984.128C286.106 979.705 287.327 975.714 292.625 972.363C295.973 970.235 302.749 967.519 306.5 969.977C309.376 971.849 311.764 979.877 309.388 982.702C306.451 986.139 298.815 983.978 298.131 989.939C297.758 993.201 300.373 996.011 303.025 998.553C318.513 1000.98 333.955 999.653 349.267 995.537C349.378 995.202 349.407 994.829 349.545 994.484C349.142 993.296 349.374 992.222 350.609 991.462L350.911 991.833C351.491 990.905 352.124 990.018 352.754 989.164C356.545 984.04 367.653 978.423 370.925 987.181C371.022 987.437 371.044 987.698 371.099 987.947C381.122 983.711 391.05 978.41 400.944 972.651C402.313 976.842 403.661 981.04 405.408 984.949C407.551 989.764 408.916 987.476 409.048 983.149C409.133 980.405 408.469 972.811 410.658 971.036C411.781 973.417 415.491 977.801 418.312 978.206C422.681 978.843 422.803 973.796 422.514 970.53C422.229 967.518 421.714 963.898 420.92 960.291C427.808 955.777 434.637 951.123 441.433 946.365C440.438 945.948 439.471 945.527 438.549 945.059C434.129 942.723 431.305 937.163 426.32 936.281L429.116 940.749C428.159 938.93 426.115 938.3 426.031 936.167C426.15 936.176 426.223 936.248 426.32 936.281L425.176 934.455C424.212 934.974 423.655 934.784 423.539 933.865C428.978 930.376 430.927 931.303 435.746 934.39C439.621 936.832 444.695 934.798 448.093 938.052C448.849 938.769 449.363 939.561 449.922 940.328C464.877 929.674 479.546 918.935 493.923 909.378C494.01 909.607 494.184 909.804 494.198 910.045L495.763 910.116C495.143 910.003 494.626 909.713 494.389 909.086C494.469 909.033 494.573 908.963 494.677 908.893C504.854 907.727 515.564 910.252 525.807 910.156C531.064 910.11 529.515 907.945 525.605 906.102C523.125 904.912 515.896 902.505 515.146 899.768C517.786 899.695 523.262 898.034 524.753 895.613C525.899 893.762 525.351 892.312 524.137 891.176C527.912 889.202 531.644 887.36 535.361 885.724C530.548 877.973 524.552 870.144 519.852 878.64C520.147 878.953 520.502 879.18 520.801 879.522L519.632 878.993C519.685 878.85 519.774 878.778 519.852 878.64C517.331 876.079 514.405 874.072 511.869 871.533C510.236 869.9 507.229 865.381 509.263 863.44C511.747 861.083 516.04 864.608 518.243 865.902C520.234 867.061 525.413 869.495 524.879 864.704C527.72 867.36 529.907 870.501 532.259 873.573C534.95 877.11 537.97 880.26 541.125 883.298C544.169 882.117 547.174 881.058 550.175 880.147C549.406 876.854 546.913 874.753 545.543 871.718C543.55 867.301 540.885 863.523 539.177 859.006C537.826 855.433 537.329 852.654 537.36 848.789C537.365 847.886 537.385 846.191 537.582 844.984C535.751 840.567 536.971 836.553 542.268 833.218C545.604 831.102 552.392 828.374 556.127 830.83C558.996 832.705 561.403 840.741 559.021 843.553C556.09 847.003 548.455 844.827 547.77 850.803C547.161 855.965 554.08 860.092 556.807 863.646C559.309 866.931 563.73 872.626 564.691 876.755C598.467 870.7 631.294 866.182 662.082 861.355C664.035 865.24 665.991 868.685 666.608 869.646C668.182 872.103 669.978 874.799 671.381 877.066C672.364 878.651 673.361 877.18 673.238 879.824C673.172 881.336 671.509 881.656 671.822 883.257C676.266 883.318 679.651 874.009 680.313 870.453C681.069 866.392 679.538 862.524 678.066 858.773C687.256 857.256 696.178 855.618 704.896 853.909C706.075 855.93 707.527 858.347 709.071 858.935C713.611 860.632 718.243 854.906 720.117 850.691C731.321 848.197 741.967 845.406 752.082 842.268C752.121 842.33 752.123 842.376 752.157 842.425C753.207 844.309 754.63 845.713 756.374 846.949C755.666 848.149 754.943 849.347 754.228 850.588C752.342 853.898 748.964 856.146 747.172 859.358C744.586 864.027 747.858 868.454 750.511 872.36L749.634 861.864C757.346 859.203 763.16 855.018 767.325 848.157C767.488 848.08 767.669 848.073 767.836 847.964C770.823 846.165 773.75 840.974 773.439 837.547C773.344 836.828 772.921 835.994 772.479 835.19C772.494 835.107 772.453 835.061 772.47 834.985C775.572 833.713 778.897 832.625 781.855 831.237C782.062 830.442 782.328 829.679 782.605 829.212C784.186 826.665 786.984 826.378 788.967 827.801C816.542 813.417 836.434 792.883 845.731 761.851C848.579 759.419 850.935 755.546 851.995 753.203C853.585 749.62 853.785 745.653 855.322 742.052C856.615 738.943 858.714 733.495 854.793 731.256C853.673 730.592 852.419 730.65 851.158 730.934C851.928 719.385 851.689 706.754 850.229 692.865C850.976 694.108 851.784 695.29 852.835 696.241C854.225 697.457 858.03 700.18 859.974 699.792C862.736 699.248 861.158 696.17 860.454 694.147C858.475 688.361 855.97 683.259 852.339 678.374C850.299 675.639 847.571 670.598 844.459 668.407ZM207.97 837.981C205.555 837.653 204.283 835.53 204.698 833.616L203.26 835.608C198.33 836.886 202.067 830.195 204.021 829.079C207.108 827.28 212.729 824.986 213.747 830.018C214.437 833.348 211.871 838.518 207.97 837.981ZM216.472 808.814C212.867 809.345 211.726 806.162 210.949 802.989C209.377 802.327 207.37 800.273 208.114 798.396C208.575 797.236 210.873 796.991 211.889 796.607C215.642 795.188 218.982 794.689 220.845 799.394C222.44 803.368 220.829 808.177 216.472 808.814ZM209.055 760.799L209.052 760.731L209.066 760.748C209.077 760.775 209.05 760.785 209.055 760.799ZM311.541 963.972L316.97 961.92C315.685 962.729 314.314 963.132 312.828 963.185C313.41 958.765 314.571 956.469 318.897 954.957C322.672 953.615 326.054 952.861 327.717 957.117C331.68 967.155 316.151 972.871 311.541 963.972ZM364.212 753.977C358.462 757.253 357.267 753.258 360.467 749.012C363.155 745.446 364.867 741.493 369.135 739.586C366.808 733.816 363.964 738.636 360.282 738.518C356.498 738.391 354.876 733.572 352.342 731.402C348.604 728.245 343.259 727.145 338.966 724.899C334.547 722.563 331.725 717.01 326.745 716.119L329.546 720.6C328.589 718.781 326.533 718.141 326.453 715.998C326.567 716.016 326.63 716.1 326.745 716.119L325.613 714.304C324.641 714.826 324.089 714.626 323.966 713.709C329.411 710.217 331.347 711.15 336.177 714.225C340.048 716.677 345.109 714.648 348.511 717.893C349.983 719.286 350.558 721.01 352.31 722.267C354.35 723.699 357.007 724.93 359.355 725.753C362.68 726.923 366.945 725.82 369.513 728.586C376.988 736.665 372.923 748.997 364.212 753.977ZM356.338 686.022C355.757 689.794 352.575 690.835 349.541 690.21L350.308 692.24C346.017 691.403 342.396 689.574 342.095 684.71C341.903 681.7 343.634 677.555 346.11 675.764C352.525 671.097 357.171 680.56 356.338 686.022ZM577.16 830.4C573.383 833.832 570.6 829.459 567.747 827.239C566.247 827.359 564.803 827.404 563.625 826.586C561.997 825.413 561.37 822.268 561.522 820.392C561.947 814.583 570.003 812.015 574.583 814.938C578.425 817.416 580.94 826.976 577.16 830.4ZM539.414 510.402C539.62 509.931 539.761 509.369 540.064 509.132C540.425 509.904 541.105 510.849 541.882 511.827C541.079 511.329 540.221 510.891 539.414 510.402ZM587.647 593.785C581.321 594.296 577.89 585.545 576.091 580.746L573.999 585.421C573.405 583.85 572.15 579.94 573.151 578.359C574.975 575.496 577.057 578.177 578.377 579.736C580.392 582.056 581.323 584.887 583.216 587.331C584.386 588.799 587.472 591.879 587.647 593.785ZM617.512 572.972C615.531 572.388 614.04 571.086 612.766 569.526C612.739 570.23 612.851 570.911 612.933 571.597L617.285 581.726C615.189 578.52 613.391 575.107 612.933 571.597L610.678 566.323C611.265 567.489 611.968 568.556 612.766 569.526C612.864 567.794 613.256 566.043 614.344 564.244C617.163 559.58 622.995 559.98 624.831 565.304C626.606 570.366 622.489 574.442 617.512 572.972ZM724.85 583.725C725.064 583.028 725.28 582.299 725.934 581.466C727.519 579.395 729.937 577.472 731.257 580.355C732.038 582.056 734.452 588.318 731.14 589.015C730.354 589.173 729.626 588.731 728.934 588.099C725.977 587.783 724.13 586.293 724.85 583.725ZM810.491 796.309C800.149 801.066 804.356 789.05 796.382 787.826C791.49 787.086 782.079 787.045 781.321 793.357L778.11 793.038C777.88 790.497 780.511 788.508 781.785 786.57C783.534 783.937 784.22 780.973 786.483 778.661C791.143 773.925 794.801 776.441 800.643 776.683C802.766 776.79 805.557 777.4 807.396 775.695C809.334 773.907 808.398 771.656 808.307 769.217C808.195 766.724 808.376 764.174 808.129 761.709C807.978 760.295 808.2 757.098 807.541 755.944C810.6 766.293 825.34 789.486 810.491 796.309ZM826.273 750.728C824.429 751.279 820.852 750.073 819.2 749.526C815.172 748.167 813.369 745.288 811.944 742.028C809.673 740.513 808.083 737.793 807.773 735.121L807.736 735.104C807.756 735.096 807.763 735.094 807.763 735.094C807.426 731.946 808.855 729.055 813.097 728.908C821.335 728.615 824.159 737.834 826.608 743.805C827.682 746.381 829.888 749.654 826.273 750.728ZM813.215 679.309C813.066 679.241 812.893 679.068 812.735 678.997C810.452 679.22 808.525 678.923 808.362 676.011C808.362 675.826 808.455 675.606 808.452 675.414C808.004 674.859 807.411 674.328 807.131 673.771C806.325 672.065 806.549 670.054 806.161 668.236L808.988 672.052C809.459 670.634 810.134 669.269 810.988 668.252C814.655 663.838 820.806 666.221 822.004 671.401C823.267 676.88 818.809 681.763 813.215 679.309ZM800.926 645.194C797.917 641.769 795.833 638.635 792.603 635.379C790.802 633.563 785.973 628.923 782.479 627.408C781.625 627.508 781.066 627.311 780.655 626.934C780.468 626.928 780.254 626.87 780.089 626.902L775.861 623.853C775.426 623.902 774.994 623.958 774.545 624.012C773.46 618.458 781.048 614.187 785.913 615.546C787.121 614.103 788.474 612.821 790.361 611.976C788.018 606.204 785.181 611.045 781.506 610.924C777.733 610.786 776.107 605.976 773.554 603.797C769.827 600.629 764.481 599.544 760.184 597.308C755.764 594.971 752.936 589.421 747.953 588.523L750.746 592.985C749.795 591.179 747.747 590.543 747.663 588.409C747.78 588.411 747.847 588.509 747.953 588.523L746.812 586.704C745.853 587.221 745.295 587.024 745.169 586.123C750.607 582.611 752.56 583.545 757.383 586.623C761.256 589.081 766.324 587.05 769.723 590.288C771.189 591.684 771.761 593.401 773.508 594.667C775.554 596.113 778.217 597.341 780.554 598.153C783.895 599.325 788.16 598.222 790.728 600.988C795.841 606.522 795.474 614.012 791.968 619.807C794.291 622.188 796.329 624.978 797.306 627.298C799.515 632.573 803.724 636.608 808.971 639.04C812.636 640.721 816.872 641.84 820.17 644.238C822.815 646.151 824.571 649.232 827.222 650.997C817.518 653.902 807.956 653.155 800.926 645.194ZM608.061 534.972C607.765 534.637 607.426 534.411 607.119 534.087C607.039 534.241 606.96 534.317 606.892 534.443L608.061 534.972ZM504.309 910.515L495.718 910.079C496.771 910.282 498.14 910.08 499.22 910.374C500.726 910.76 503.958 913.715 504.309 910.515ZM750.748 402.298L749.295 400.181C749.67 401.257 750.087 402.278 750.559 403.202C750.561 404.588 751.37 405.754 753.405 406.256C754.229 406.707 755.199 406.973 756.423 406.957C760.426 406.869 762.928 403.096 761.743 399.29C759.574 392.312 751.806 397.814 750.748 402.298ZM266.344 660.668C266.051 660.34 265.702 660.109 265.402 659.783C265.333 659.925 265.252 659.995 265.173 660.132L266.344 660.668ZM174.044 892.979L171.245 888.504C171.126 888.495 171.064 888.411 170.945 888.402C171.037 890.556 173.085 891.176 174.044 892.979ZM225.15 173.033L227.402 178.277C227.313 177.594 227.199 176.905 227.232 176.222C226.434 175.229 225.74 174.166 225.15 173.033ZM18.1833 304.06L17.3031 302.443C17.5844 302.476 17.7793 302.625 18.0975 302.613C24.5768 302.059 28.961 297.143 25.7398 290.94C20.1857 280.294 -1.46489 301.585 18.1833 304.06ZM155.37 73.4453L154.029 71.8714C161.81 71.8736 167.423 63.6797 164.651 56.3053C161.372 47.5503 150.276 53.178 146.483 58.2953C145.859 59.1474 145.213 60.0393 144.651 60.9529L144.342 60.5841C143.107 61.3438 142.882 62.4152 143.274 63.6154C142.603 65.3178 142.309 67.1242 142.848 69.0781C144.452 74.9906 150.448 73.7261 155.37 73.4453ZM231.756 188.413L227.402 178.277C227.858 181.803 229.651 185.202 231.756 188.413ZM239.297 171.977C237.455 166.656 231.638 166.258 228.803 170.92C227.722 172.739 227.328 174.483 227.23 176.215C228.511 177.773 229.997 179.061 231.965 179.65C236.957 181.123 241.084 177.05 239.297 171.977ZM526.704 375.617C517.307 374.654 518.45 387.399 520.114 393.166C522.221 400.468 526.138 406.986 533.792 409.032C534.017 409.363 534.253 409.682 534.461 410.027L536.337 410.883C536.583 410.72 536.849 410.589 537.128 410.453C533.053 416.655 543.764 428.518 545.725 419C546.254 416.434 544.966 410.279 542.779 408.44C541.53 407.394 536.752 405.555 536.758 407.279C543.709 398.371 539.932 376.951 526.704 375.617ZM379.191 453.586C379.762 451.213 379.47 448.773 381.822 447.591C384.06 446.475 386.584 447.802 388.587 448.486C394.161 450.316 396.996 453.729 402.753 450.451C405.564 448.857 407.027 446.177 409.445 444.115C411.204 442.626 414.281 441.409 414.742 438.907L411.746 437.713C409.299 443.585 400.244 440.966 395.739 438.932C388.4 435.565 395.728 425.174 384.462 426.936C368.322 429.43 376.187 455.77 376.317 466.547C375.999 465.257 377.081 462.244 377.321 460.843C377.749 458.416 378.621 456.006 379.191 453.586ZM491.858 432.35C493.786 437.247 495.05 442.972 497.67 447.522C499.491 450.671 504.106 455.885 508.017 456.51C512.481 457.234 516.186 452.474 517.636 448.844C519.953 443.036 519.57 426.991 510.019 428.775C499.586 430.708 495.96 440.701 500.023 449.699L490.809 425.326C490.058 427.852 490.934 429.987 491.858 432.35ZM440.139 409.812C439.422 414.606 440.22 419.382 439.565 423.567C444.499 422.018 449.523 420.643 454.056 418.113C455.654 417.216 457.077 416.139 458.351 414.956C462.627 416.199 466.899 417.088 471.213 417.152C470.629 415.971 469.985 414.858 469.508 413.597C468.152 410.01 467.677 407.247 467.705 403.375C467.7 402.468 467.731 400.761 467.931 399.56C466.097 395.137 467.318 391.146 472.617 387.795C475.96 385.676 482.738 382.944 486.483 385.427C489.363 387.29 491.758 395.315 489.377 398.127C486.438 401.58 478.807 399.41 478.125 405.377C477.68 409.183 481.284 412.39 484.315 415.243C499.357 411.33 510.753 404.256 519.083 394.788C515.504 394.23 511.696 392.433 508.204 390.07C508.526 392.345 508.804 394.605 508.805 396.785L504.223 387.167C502.006 385.369 500.098 383.594 498.791 382.231C499.482 381.539 500.332 381.163 501.315 381.038L504.223 387.167C505.459 388.156 506.807 389.141 508.204 390.07C507.469 384.83 506.402 379.447 507.382 374.553C508.99 366.625 520.465 361.409 527.336 366.448C529.508 368.046 530.685 371.261 531.15 374.931C533.552 368.899 535.224 362.38 536.326 355.513C537.33 356.968 538.198 358.473 538.43 360.428C530.956 364.756 541.279 367.234 545.514 366.234C549.591 365.263 553.67 360.901 552.841 356.491C552.032 352.319 547.395 346.436 544.831 343.051C543.182 340.885 540.07 338.448 537.955 335.741C537.977 332.789 537.967 329.834 537.818 326.816C540.465 325.052 544.959 325.411 547.055 322.962C549.42 320.149 547.036 312.112 544.153 310.242C542.079 308.884 539.083 309.154 536.244 310.003C535.548 304.642 534.708 299.249 533.614 293.791C532.445 295.234 531.271 296.664 530.064 298.169C523.93 305.82 515.339 306.948 506.539 310.028C505.811 307.044 509.539 301.612 510.994 298.851C514.495 292.187 517.305 286.686 518.877 279.273C520.486 271.652 521.651 263.568 523.557 256.143C522.877 254.119 522.122 252.101 521.408 250.09L519.846 252.283C519.731 251.633 519.64 250.966 519.529 250.307C520.023 250.028 520.622 249.801 521.227 249.572C520.449 247.37 519.721 245.141 518.89 242.943C501.321 196.098 470.045 168.537 439.721 153.338C435.868 147.05 430.761 141.206 426.511 136.024C415.067 122.102 403.78 108.106 393.026 93.7932C381.322 78.1442 369.653 62.4278 356.134 47.8347C350.382 41.6483 344.377 35.5654 337.582 30.1197C335.111 28.118 329.072 21.986 324.744 22.3121C314.911 22.9623 325.092 41.0287 326.674 44.6843C332.847 58.818 339.624 72.7002 345.047 87.1482C349.78 99.6687 354.589 112.207 359.251 124.785C359.294 124.776 359.361 124.751 359.418 124.76C362.524 124.495 363.615 126.302 364.848 129.219C365.943 131.81 366.836 134.478 368.128 136.817C368.752 136.944 369.279 137.238 369.731 137.722C370.083 138.267 370.072 138.787 369.7 139.329C369.891 139.957 369.622 141.808 369.953 142.886C371.556 148.267 376.439 149.896 379.095 154.602C381.228 158.335 382.999 168.492 377.595 170.627C375.31 167.33 376.846 163.99 375.269 160.772C373.828 157.795 369.627 156.525 367.468 153.966C364.454 150.366 362.231 145.38 360.149 140.951C343.347 152.188 358.788 194.296 365.832 253.364C370.05 248.109 378.821 250.465 382.812 254.759C385.933 258.094 388.04 267.716 380.679 265.814C378.632 265.3 376.899 264.052 375.37 262.55L378.541 267.847C375.498 268.034 370.881 268.754 367.601 267.42C374.919 322.27 404.869 382.727 440.791 406.552C440.505 407.708 440.283 408.809 440.139 409.812ZM472.147 202.611C475.239 202.352 476.337 204.156 477.566 207.082C478.66 209.673 479.554 212.341 480.85 214.671C481.46 214.803 482.003 215.098 482.443 215.572C482.798 216.123 482.789 216.65 482.411 217.194C482.6 217.816 482.328 219.66 482.652 220.74C484.271 226.123 489.141 227.758 491.812 232.466C493.929 236.196 495.713 246.364 490.31 248.484C488.021 245.195 489.564 241.853 487.984 238.629C486.546 235.658 482.338 234.39 480.185 231.829C476.671 227.617 474.169 221.466 471.812 216.593C470.168 213.199 467.474 210.365 466.602 206.634L462.856 209.252C462.935 205.801 469.095 202.856 472.147 202.611ZM445.513 192.374C446.505 189.811 450.081 185.932 453.176 186.45C456.864 187.074 456.546 190.261 455.623 193.007C455.055 194.778 453.865 196.715 452.382 197.854C451.716 198.352 451.097 198.563 450.446 198.755L450.482 198.787C450.457 198.782 450.463 198.779 450.446 198.755C449.663 199.02 448.847 199.221 447.956 199.611C447.501 199.036 447.156 198.226 446.89 197.379C445.408 196.306 444.596 194.686 445.513 192.374ZM448.943 373.857L450.853 375.94C450.446 374.661 450.328 373.249 450.842 371.498C451.683 368.576 453.544 365.121 456.108 363.382C462.157 359.331 467.844 364.024 467.946 370.373C468.072 377.215 464.42 384.312 456.669 383.251C451.779 382.579 450.292 377.994 448.943 373.857ZM424.931 370.759C424.665 370.891 424.389 371.033 424.142 371.173L422.259 370.321C422.052 369.998 421.811 369.665 421.593 369.332C413.939 367.286 410.006 360.766 407.908 353.468C406.265 347.717 405.103 334.963 414.512 335.915C427.741 337.271 431.503 358.674 424.573 367.596C424.549 365.864 429.331 367.694 430.579 368.74C432.787 370.594 434.069 376.752 433.538 379.311C431.552 388.823 420.84 376.96 424.931 370.759ZM220.059 502.266L220.086 502.317C220.079 502.297 220.085 502.294 220.073 502.261C220.079 502.258 220.066 502.263 220.059 502.266ZM276.143 510.725C274.857 510.78 272.774 511.128 271.554 511.419C269.353 511.982 270.185 510.665 269.062 513.348C267.948 515.973 268.229 519.319 268.452 522.047C268.734 525.639 276.776 523.015 280.025 522.642C283.392 522.256 288.272 520.989 291.266 518.902C289.656 515.01 280.165 510.545 276.143 510.725ZM224.26 509.208C225.686 512.452 227.483 515.356 231.512 516.7C233.167 517.253 236.748 518.45 238.579 517.904C242.201 516.828 239.99 513.541 238.93 510.983C236.475 505.015 233.649 495.811 225.406 496.091C221.18 496.24 219.727 499.109 220.073 502.261C220.432 502.194 220.791 502.128 221.14 502.073C221.863 503.418 222.441 504.825 222.994 506.227L220.086 502.317C220.396 504.966 221.995 507.691 224.26 509.208ZM185.969 470.289C187.288 471.663 189.187 473.434 191.414 475.236L188.496 469.103C187.517 469.219 186.672 469.608 185.969 470.289ZM195.992 484.848C195.978 482.673 195.716 480.414 195.387 478.141C193.997 477.21 192.649 476.225 191.414 475.236L195.992 484.848ZM195.385 478.135C201.466 482.224 208.654 485.17 213.475 481.491C214.458 480.757 215.274 479.539 215.978 478.187C228.061 487.598 241.201 493.966 255.43 495.63C256.994 493.382 258.65 491.315 261.381 490.098C259.053 484.328 256.207 489.164 252.534 489.027C248.75 488.901 247.126 484.097 244.587 481.913C240.843 478.743 235.516 477.667 231.211 475.411C226.778 473.079 223.962 467.54 218.99 466.63L221.786 471.098C220.834 469.293 218.78 468.659 218.685 466.515C218.806 466.53 218.868 466.615 218.99 466.63L218.532 465.887C218.514 464.945 218.466 464.023 218.358 463.109C222.192 461.251 224.333 462.137 228.422 464.737C232.282 467.2 237.359 465.173 240.756 468.404C242.219 469.793 242.797 471.524 244.541 472.784C246.595 474.211 249.248 475.451 251.587 476.27C254.921 477.444 259.19 476.331 261.749 479.094C266.363 484.1 266.571 490.71 263.993 496.215C267.615 496.156 271.325 495.701 275.065 495.081C275.744 496.936 276.68 496.729 278.732 496.199C281.982 495.379 284.451 495.872 287.591 496.896C288.597 497.217 289.906 497.894 291.009 497.639C291.909 497.437 292.143 496.694 292.846 496.358C294.832 495.469 294.939 496.037 296.749 497.611C298.936 499.512 300.476 500.171 302.905 498.258C304.776 496.781 307.68 494.435 309.044 492.532C310.369 490.667 309.595 489.781 308.206 488.017C307.144 486.693 305.73 485.169 304.17 483.725C329.144 467.241 335.893 430.161 329.922 389.266C325.432 382.534 320.24 377.199 316.041 384.742C316.351 385.072 316.699 385.303 316.99 385.624L315.821 385.095C315.891 384.953 315.97 384.877 316.041 384.742C313.51 382.193 310.612 380.183 308.065 377.655C306.433 376.022 303.423 371.496 305.467 369.56C307.946 367.19 312.238 370.715 314.447 372.022C316.438 373.18 321.605 375.604 321.07 370.813C323.805 373.37 325.953 376.388 328.208 379.342C326.234 369.138 323.548 358.818 320.188 348.607C319.563 348.235 318.851 347.918 317.953 347.78C313.051 347.036 303.641 346.994 302.885 353.314L299.684 352.982C299.45 350.451 302.085 348.453 303.362 346.522C305.118 343.885 305.802 340.915 308.062 338.596C310.722 335.911 313.064 335.619 315.667 335.875C308.675 317.744 299.791 300.343 289.341 285.268C267.726 254.1 253.147 225.09 240.413 206.455C240.317 206.83 240.26 207.229 240.139 207.56C239.169 210.423 237.668 213.611 234.136 212.85C231.196 212.212 229.167 209.326 228.089 206.698C228.014 206.518 227.901 206.261 227.819 206.045C226.37 205.283 225.965 203.764 226.194 202.051C224.697 198.171 223.614 193.741 226.341 190.745C226.468 190.898 226.596 191.073 226.718 191.234L228.015 197.31C228.797 196.143 229.828 195.191 231.001 194.409C223.83 186.848 216.835 183.597 208.955 186.545C208.874 186.575 208.817 186.628 208.77 186.646C201.19 168.444 193.53 150.295 186.157 132.053C180.262 117.413 176.677 101.461 169.216 87.4987C163.633 77.0411 155.921 73.8068 152.758 87.2007C149.279 101.955 152.376 118.407 153.442 133.469C154.641 150.493 153.897 167.48 153.879 184.516C153.857 205.346 154.531 226.328 156.812 247.126C141.197 280.338 133.196 324.865 151.138 375.483C155.057 386.5 159.529 397.355 164.464 407.826C168.888 410.724 173.379 413.88 178.017 416.366C181.643 418.331 185.847 420.402 189.656 422.099C193.831 423.973 200.025 424.29 203.432 427.202C194.542 433.583 184.082 431.657 174.698 427.722C181.213 439.199 188.45 449.64 196.236 458.91C195.467 460.049 194.841 461.28 194.572 462.622C193.583 467.511 194.644 472.882 195.385 478.135ZM222.691 211.698C225.151 208.972 227.507 214.878 228.613 216.402C230.866 219.534 233.626 222.382 236.247 225.229C240.655 230.035 245.221 235.322 246.125 242.208C243.162 243.582 236.497 239.313 233.931 237.956C228.277 234.976 227.246 230.581 225.007 225.024L228.188 222.295C225.406 220.365 223.029 215.053 222.691 211.698ZM237.548 271.603C237.489 268.844 239.787 264.408 241.565 262.379C245.13 258.327 252.707 257.851 254.123 264.22C255.25 269.235 251.355 275.099 245.953 273.481C243.992 272.889 242.94 271.753 242.275 270.402L243.461 277.544C239.913 276.396 237.604 275.658 237.548 271.603ZM301.365 433.126L301.395 431.782C301.436 432.198 301.525 432.596 301.585 432.997C301.497 433.03 301.459 433.091 301.365 433.126L301.347 434.443C302.463 431.802 305.544 430.637 309.28 428.948C313.428 427.087 318.893 424.358 321.288 430.35C322.992 434.653 318.485 437.843 318.635 442.225C318.713 444.77 319.75 447.29 318.973 449.872C318.219 452.331 316.237 453.596 314.657 455.457C312.072 458.523 311.889 463.469 307.866 464.99C303.426 466.668 298.034 464.869 295.596 460.921C290.433 452.654 291.61 436.914 301.365 433.126ZM175.618 217.455L184.54 217.974C182.206 217.638 174.509 215.825 177.299 211.634C179.297 208.621 183.321 211.862 184.159 214.057C185.453 217.482 184.964 220.927 180.836 221.293C178.459 221.513 175.892 220.033 175.618 217.455ZM165.086 352.811C160.857 353.824 150.542 351.351 157.995 347.008C157.544 343.148 154.617 341.018 153.11 337.704C151.129 333.298 148.458 329.506 146.756 325.003C145.4 321.416 144.915 318.648 144.946 314.783C144.948 313.873 144.975 312.176 145.172 310.968C143.344 306.558 144.554 302.541 149.858 299.203C153.201 297.084 159.984 294.365 163.719 296.822C166.595 298.694 168.986 306.729 166.627 309.539C163.695 312.99 156.054 310.815 155.362 316.795C154.76 321.954 161.692 326.076 164.41 329.626C166.976 333.017 171.614 338.901 172.425 343.079C173.254 347.489 169.172 351.844 165.086 352.811Z" fill="#010101" fill-opacity="0.04"/>
</svg>
