<svg width="343" height="194" viewBox="0 0 343 194" fill="none" xmlns="http://www.w3.org/2000/svg">
<path fill-rule="evenodd" clip-rule="evenodd" d="M139.361 224.529C139.339 210.718 130.444 195.188 126.645 187.181C119.133 171.345 111.32 156.721 103.579 141.863C95.8381 127.006 88.0765 112.188 80.6953 95.8766C75.9026 85.2881 70.2712 73.3625 67.0208 58.2431C60.0965 26.0227 81.9282 30.8075 87.5833 30.1026C101.97 28.3023 118.471 29.1239 131.956 12.3451C140.006 2.32861 143.216 -14.4703 141.487 -38.9538C140.93 -46.9163 139.28 -56.079 140.677 -63.8361C142.17 -72.1207 145.602 -76.9014 148.452 -80.1073C158.844 -91.7872 170.792 -93.1405 181.787 -94.6065C193.643 -96.2176 205.611 -95.7463 217.384 -95.8712C222.376 -95.9235 227.589 -101.107 232.343 -105.32C238.575 -110.842 244.733 -117.044 250.913 -123.041C264.509 -136.203 278.52 -150.066 292.905 -153.409C301.913 -155.503 311.759 -152.672 318.757 -134.455C322.271 -125.309 324.11 -111.712 326.141 -99.6329C328.6 -85.0411 330.962 -70.3083 333.58 -55.9461C342.013 -9.68963 354.053 35.5116 373.596 37.7832C376.552 38.1255 379.456 37.0099 382.398 36.8004C384.272 36.6716 385.94 37.9805 386.636 43.6473C388.387 57.8605 382.883 80.298 380.626 91.5752C375.684 116.26 370.111 139.837 364.891 164.027C361.437 180.024 355.459 201.886 355.396 221.323C355.34 238.641 363.31 251.159 367.648 259.689C371.713 267.676 379.079 278.852 379.525 295.099C379.741 302.977 377.944 309.506 376.067 314.573C372.778 323.433 368.988 329.684 366.029 339.793C361.177 356.379 357.122 379.199 357.781 401.548C358.238 417.034 361.295 427.175 365.183 436.869C366.818 440.945 368.144 443.829 368.23 450.446C368.37 460.954 366.946 472.074 365.773 481.817C361.576 516.683 355.616 550.398 348.986 581.877C345.673 597.609 342.094 613.292 337.701 626.712C334.824 635.524 330.944 646.012 326.555 646C321.474 646 316.098 640.7 311.159 636.737C301.934 629.33 292.821 620.767 283.744 611.983C262.753 591.66 241.959 569.691 221.363 546.076C206.855 529.414 192.04 512.728 178.4 490.577C175.74 486.227 173.229 481.155 170.902 475.429C168.415 469.416 165.329 466.726 162.2 464.72C142.778 452.271 121.501 461.828 101.999 467.821C97.0488 469.339 92.0987 470.866 87.1347 471.929C82.8673 472.843 77.7584 475.465 73.6107 471.526C65.4381 463.773 72.5825 435.198 75.603 423.554C86.2375 382.558 99.9579 347.872 112.675 312.462C118.722 295.599 124.814 278.78 130.532 260.962C133.509 251.699 139.38 236.636 139.361 224.529Z" stroke="#FAFAFA" stroke-width="4"/>
<path fill-rule="evenodd" clip-rule="evenodd" d="M143.025 222.2C139.765 207.586 134.046 196.785 129.299 186.62C122.468 171.987 115.422 158.166 108.481 143.947C101.919 130.501 95.3428 116.902 89.2656 101.632C85.5599 92.3205 80.9103 81.1852 79.155 67.413C75.3476 37.5619 95.8308 42.0909 100.887 41.3099C113.459 39.3776 127.711 38.9347 139.342 23.2181C146.604 13.4033 149.587 -2.87292 148.038 -25.4696C147.503 -33.2876 146.538 -39.9624 147.76 -47.7402C149.172 -56.7418 152.42 -62.3537 155.398 -66.3151C164.727 -78.7266 175.753 -81.3634 185.865 -83.5574C196.312 -85.824 207.196 -87.4222 217.306 -85.7636C221.35 -85.1034 226.003 -88.8514 230.005 -91.7258C236.161 -96.1541 242.255 -101.263 248.381 -106.013C260.831 -115.675 273.605 -124.983 286.556 -126.041C295.907 -126.806 305.657 -122.66 313.436 -106.633C321.32 -90.3812 324.818 -65.1879 329.19 -41.2386C336.741 0.166512 346.939 50.5088 364.408 59.2568C367.057 60.5853 369.603 59.8647 372.249 60.1908C373.61 60.3559 375.159 60.8792 375.849 64.756C377.641 74.8205 372.732 93.2223 371.08 100.932C366.515 122.236 361.383 142.498 356.6 163.391C352.801 179.982 347.985 198.416 346.516 218.082C344.732 241.946 356.384 258.927 360.481 275.731C367.584 304.869 354.126 321.472 347.492 335.364C339.872 351.315 333.583 380.413 340.413 405.091C343.026 414.527 346.241 420.151 347.408 432.466C349.233 451.725 347.853 473.734 346.372 492.772C344.141 521.391 340.611 549.701 335.813 575.566C332.375 594.085 326.671 623.123 318.318 620.945C312.696 619.491 306.98 614.181 301.505 609.487C293.307 602.462 285.212 594.455 277.161 586.138C258.575 566.991 240.195 545.88 222.175 522.66C209.88 506.81 175.583 442.039 173.002 439.729C165.308 432.845 156.56 434.056 148.627 435.123C138.074 436.54 127.575 440.212 117.084 443.613C112.09 445.224 107.071 447.192 102.05 447.985C98.4769 448.549 93.7841 449.032 90.6542 443.03C84.5449 431.319 91.3513 404.523 94.1661 393.187C102.789 358.432 113.697 328.335 123.925 297.562C128.944 282.454 134.039 267.369 138.596 251.049C140.433 244.458 145.039 231.226 143.025 222.2Z" stroke="#FAFAFA" stroke-width="4"/>
<path fill-rule="evenodd" clip-rule="evenodd" d="M147.534 214.706C138.633 185.462 126.346 163.713 115.742 139.29C110.42 127.028 105.064 114.432 100.474 99.8262C98.0863 92.2314 95.1046 82.6272 94.6446 72.0405C93.4151 43.7193 111.877 47.5489 117.402 46.4737C128.086 44.3878 140.155 42.8053 149.847 28.3527C155.769 19.5177 158.685 5.0168 157.578 -14.0425C157.087 -22.499 156.323 -29.683 157.578 -37.9865C158.849 -46.3987 161.498 -52.3343 164.18 -56.784C171.887 -69.5815 181.465 -73.6729 190.143 -76.7213C200.322 -80.2718 210.578 -81.6581 220.828 -80.869C229.805 -80.1884 238.739 -87.8436 247.504 -92.8893C259.116 -99.5699 270.938 -105.405 282.82 -104.523C292.205 -103.822 301.663 -98.3175 309.685 -83.6878C317.837 -68.7883 322.738 -46.4873 327.157 -22.4225C333.837 13.9565 342.162 62.7062 356.816 76.5225C358.948 78.536 360.934 78.7574 363.133 79.1078C364.2 79.2769 365.579 79.3293 366.109 82.5468C367.383 90.2945 362.673 105.315 361.358 110.55C357.162 127.261 352.614 143.22 348.313 159.71C344.299 175.105 339.926 191.148 337.432 209.189C333.463 237.921 346.151 254.721 345.796 282.1C345.574 299.097 339.941 311.287 335.48 319.719C329.988 330.088 322.08 336.906 319.331 355.828C317.284 369.923 320.497 378.125 322.971 388.821C327.164 406.942 327.45 431.506 327.013 452.482C326.425 480.827 324.127 509.592 320.214 535.646C318.441 547.457 316.269 559.743 313.071 568.916C310.075 577.513 307.24 579.716 303.237 577.956C290.981 572.56 278.607 557.52 266.854 544.086C252.088 527.205 237.525 508.569 223.397 487.601C213.763 473.301 203.912 458.172 195.456 438.416C193.252 433.266 190.996 427.668 189.384 420.875C188.166 415.769 187.649 411.553 185.595 408.637C179.509 399.999 171.044 402.259 164.523 403.157C154.096 404.586 143.719 408.392 133.356 411.818C127.309 413.832 115.918 420.166 111.089 404.973C106.921 391.853 111.951 369.484 114.52 357.926C121.018 328.699 129.378 303.048 137.134 276.635C140.689 264.53 144.383 252.333 147.318 238.875C148.068 235.444 149.27 230.898 149.476 226.73C149.708 221.954 148.627 218.31 147.534 214.706Z" stroke="#FAFAFA" stroke-width="4"/>
<path fill-rule="evenodd" clip-rule="evenodd" d="M148.301 221.514C140.075 195.657 130.165 174.415 121.334 150.219C117.375 139.37 113.376 127.989 110.359 114.755C108.737 107.638 107.013 98.6792 107.461 89.8333C108.745 64.4443 123.929 66.7374 130.063 65.2503C139.178 63.0661 149.65 60.8657 157.71 47.1757C162.99 38.209 164.969 24.9664 163.984 7.88724C162.925 -10.4332 165.291 -23.7321 170.676 -33.9522C177.426 -46.7555 185.947 -51.9744 193.786 -55.682C203.229 -60.1276 212.792 -62.0982 222.358 -61.5698C231.661 -61.054 240.674 -65.5595 249.916 -68.4893C262.17 -72.3702 274.816 -74.2845 286.932 -66.3293C297.48 -59.4017 307.008 -44.136 314.15 -20.5283C321.611 4.11115 325.304 35.1543 331.361 62.4132C335.14 79.4158 340.408 101.907 347.468 108.516C349.823 110.721 354.114 107.747 352.234 118.591C351.159 124.794 349.147 130.234 347.558 135.304C344.99 143.497 342.336 151.464 339.725 159.544C334.16 176.769 328.199 194.359 324.028 214.755C318.772 240.434 326.585 260.198 325.633 286.235C325.121 300.248 321.75 311.431 318.184 320.216C315.876 325.907 313.351 330.836 310.774 335.434C308.082 340.238 304.896 343.897 302.548 350.107C299.202 358.945 300.655 369.407 301.282 380.832C302.386 400.91 302.629 421.306 302.004 441.556C301.24 466.377 299.449 491.907 295.675 514.463C294.207 523.244 292.347 532.553 289.585 538.441C286.823 544.329 283.966 543.926 280.802 542.153C271.415 536.914 262.047 524.723 253.143 513.169C241.998 498.705 231.071 482.541 220.637 464.152C213.435 451.457 206.209 437.743 200.183 420.531C198.431 415.522 196.763 410.158 195.415 404.169C194.49 400.063 193.993 394.763 192.652 391.676C188.456 382.041 180.031 384.918 175.109 385.478C165.287 386.595 155.62 391.902 145.811 393.192C140.457 393.897 132.072 395.67 128.141 382.496C124.443 370.112 127.792 350.607 130.002 338.674C134.345 315.211 140.179 294.308 145.409 272.497C147.559 263.522 149.915 254.132 151.308 243.884C152.546 234.752 150.409 228.143 148.301 221.514Z" stroke="#FAFAFA" stroke-width="4"/>
<path fill-rule="evenodd" clip-rule="evenodd" d="M150.324 221.936C143.776 199.183 135.883 178.986 129.288 155.863C125.428 142.321 118.781 119.556 121.766 100.465C125.041 79.4869 136.457 78.9155 143.056 77.2253C150.91 75.2132 160.133 72.4646 166.855 59.3658C168.981 55.2249 170.792 49.7438 171.559 42.5244C172.381 34.7979 171.483 28.0372 171.366 20.3026C171.12 4.07695 174.472 -8.9495 178.908 -17.8954C185.176 -30.5435 193.015 -36.5235 200.419 -40.6926C208.808 -45.3949 217.335 -47.7132 225.88 -47.6143C234.046 -47.5338 242.126 -48.0569 250.3 -48.6605C260.99 -49.4654 271.831 -48.1656 282.201 -39.9602C292.416 -31.8715 301.704 -16.7122 308.999 5.58602C316.116 27.345 320.918 53.9411 325.124 81.0322C327.51 96.4087 331.542 119.387 337.234 127.154C339.765 130.611 342.249 130.373 339.557 139.363C336.168 150.683 331.6 159.766 327.675 169.448C322.012 183.421 316.207 197.666 311.454 214.278C308.418 224.886 307.066 235.18 307.275 248.915C307.436 259.378 308.169 269.732 307.798 280.235C306.931 304.888 300.212 321.794 294.272 337.536C290.451 347.661 286.961 355.384 284.994 369.786C282.668 386.809 281.691 405.328 280.137 423.003C278.429 442.412 276.456 462.601 272.728 479.696C269.41 494.916 265.374 501.741 259.334 497.64C249.913 491.25 240.627 475.507 232.263 460.943C223.75 446.126 215.383 429.466 208.329 409.099C204.52 398.101 201.921 385.187 198.538 373.372C194.284 358.539 184.66 364.157 178.94 365.412C169.445 367.497 139.568 383.095 142.325 332.574C143.475 311.488 148.007 292.026 151.321 273.418C152.695 265.696 154.682 256.428 154.993 247.579C155.332 237.941 152.292 228.786 150.324 221.936Z" stroke="#FAFAFA" stroke-width="4"/>
<path fill-rule="evenodd" clip-rule="evenodd" d="M153.78 223.868C148.777 203.249 142.789 183.77 138.495 161.5C135.71 147.078 132.976 127.808 136.568 112.548C140.623 95.3276 149.565 91.3134 156.135 89.119C162.904 86.8602 170.985 84.9598 176.517 71.9025C178.277 67.7433 179.728 62.1346 179.998 55.4187C180.259 48.9766 179.524 42.5345 179.767 35.9756C180.313 21.2473 183.403 9.11193 187.387 0.310391C199.172 -25.7278 216.712 -31.5177 230.931 -32.1982C238.049 -32.5364 245.373 -30.7608 252.536 -29.4884C261.832 -27.8376 271.141 -24.2945 280.005 -15.7547C298.853 2.396 311.486 42.6512 320.309 92.7427C323.086 108.51 325.211 125.569 329.563 138.24C331.806 144.783 331.316 149.482 329.022 155.449C325.437 164.774 321.063 171.9 317.083 179.683C311.422 190.751 305.64 201.985 300.634 215.244C297.184 224.383 294.734 233.189 293.991 246.895C293.46 256.666 293.584 266.623 293.265 276.456C292.658 295.134 290.579 313.671 286.898 329.164C283.974 341.445 280.493 352.606 276.895 363.247C272.217 377.102 268.261 391.178 264.709 407.621C259.999 429.388 253.382 469.538 242.289 458.913C230.054 447.188 218.587 417.397 210.737 388.533C208.101 378.841 205.937 366.955 202.382 359.809C197.06 349.127 191.659 349.501 185.329 349.546C175.851 349.606 155.228 355.553 155.005 314.517C154.918 298.258 157.352 282.886 158.517 267.248C159.832 249.733 157.197 237.92 153.78 223.868Z" stroke="#FAFAFA" stroke-width="4"/>
<path fill-rule="evenodd" clip-rule="evenodd" d="M157.507 225.707C152.558 198.834 141.46 154.676 149.901 124.793C154.36 109.001 162.246 103.066 168.861 99.5294C174.185 96.6687 180.605 95.5944 184.627 83.4676C187.584 74.5515 186.272 61.5757 187.404 50.4145C188.81 36.5776 192.037 25.2555 196.002 16.7457C207.083 -7.03721 222.49 -14.3359 235.82 -15.8889C249.664 -17.4983 264.918 -9.97037 277.945 4.51023C294.188 22.5718 306.357 56.7716 314.867 100.081C316.437 108.075 317.864 116.279 319.372 124.371C320.385 129.798 321.887 135.049 322.685 140.758C324.014 150.278 322.448 158.059 319.937 164.264C316.326 173.196 311.89 179.553 307.773 186.256C302.142 195.43 296.387 204.438 291.149 215.201C287.63 222.444 283.946 230.245 282.686 242.811C281.827 251.381 281.648 260.458 281.679 269.334C281.746 288.365 281.4 303.755 278.327 321.184C273.269 349.8 265.492 375.53 257.275 396.939C250.827 413.741 240.624 439.842 231.229 428.608C222.8 418.549 217.869 394.473 212.315 375.007C209.615 365.544 206.582 356.901 203.018 350.17C198.524 341.684 194.294 338.123 188.97 336.735C180.01 334.398 166.499 333.79 163.729 302.729C162.707 291.266 163.291 279.392 162.754 267.78C162.053 252.427 160.004 239.262 157.507 225.707Z" stroke="#FAFAFA" stroke-width="4"/>
<path fill-rule="evenodd" clip-rule="evenodd" d="M162.653 226.701C159.129 197.297 154.499 160.24 163.011 134.106C167.134 121.446 172.933 114.369 178.546 109.08C182.566 105.29 188.948 104.174 191.413 92.5213C193.223 83.9457 193.474 72.1155 195.111 62.9277C197.361 50.296 200.77 39.8917 204.769 31.7471C215.187 10.5236 228.755 2.32266 241.13 -0.0256554C268.017 -5.12105 295.374 35.4609 309.762 102.229C314.052 122.131 319.589 143.314 312.657 163.647C305.088 185.829 293.685 196.222 284.651 211.983C281.2 218.001 276.801 225.235 274.876 236.131C273.717 242.68 273.638 250.897 273.585 258.108C273.446 276.471 272.918 292.986 270.363 310.121C266.417 336.601 260.125 361.031 252.994 381.042C246.776 398.491 237.908 418.997 228.877 406.418C221.952 396.751 217.561 376.232 212.18 361.107C206.193 344.262 198.788 332.911 190.657 327.365C182.747 321.983 174.071 318.354 169.902 295.491C168.472 287.649 166.978 277.494 166.442 268.814C165.576 254.502 164.309 240.418 162.653 226.701Z" stroke="#FAFAFA" stroke-width="4"/>
<path fill-rule="evenodd" clip-rule="evenodd" d="M168.391 226.909C166.761 197.217 166.58 166.256 174.155 142.855C177.69 131.937 182.159 124.181 186.678 117.153C190.003 111.983 193.436 107.621 195.919 99.144C198.22 91.2951 199.969 82.1817 202.19 74.1275C205.12 63.4538 208.626 54.214 212.573 46.7631C222.466 28.1215 234.502 19.4027 246.016 16.3784C251.59 14.9085 257.636 14.1433 263.172 18.1503C268.519 22.0164 273.806 28.1296 278.722 35.2576C289.173 50.3956 298.231 72.5649 304.797 100.594C309.299 119.819 311.734 138.513 305.903 158.017C299.33 180.001 289.024 192.131 280.53 206.399C274.703 216.185 268.174 225.777 267.085 246.573C266.219 263.121 265.515 278.827 263.273 294.468C259.936 317.539 255.03 338.439 248.845 355.926C243.189 371.857 236.033 385.376 227.943 376.867C221.533 370.114 216.559 354.984 210.959 344.167C204.718 332.085 197.86 325.425 190.639 320.068C184.15 315.236 178.04 307.81 173.845 292.044C172.987 288.822 172.085 285.314 171.423 281.71C170.579 277.111 170.644 272.552 170.479 267.398C170.047 253.794 169.128 240.347 168.391 226.909Z" stroke="#FAFAFA" stroke-width="4"/>
<path fill-rule="evenodd" clip-rule="evenodd" d="M174.718 224.482C174.857 196.279 177.204 169.625 183.632 147.645C186.38 138.243 189.661 130.499 192.685 121.883C195.12 114.937 197.421 108.483 200.22 102.759C206.861 89.2064 212.259 71.6683 219.316 59.5997C228.737 43.4652 239.529 34.5469 250.237 30.9812C255.465 29.2387 260.867 28.6296 266.157 30.598C270.7 32.2881 275.051 38.2215 279.088 44.2921C286.999 56.1832 294.68 73.0841 299.817 94.4662C311.142 141.607 288.814 175.881 277.354 195.952C272.083 205.185 264.03 215.878 261.871 234.167C260.328 247.231 259.388 260.518 257.4 273.18C252.061 307.183 241.224 347.176 226.782 341.852C220.602 339.577 214.969 330.336 209.2 324.132C203.26 317.743 197.128 314.181 190.954 310.273C185.184 306.622 180.584 301.427 176.857 287.499C175.076 280.848 175.233 272.885 175.074 264.725C174.815 251.321 174.655 237.841 174.718 224.482Z" stroke="#FAFAFA" stroke-width="4"/>
<path fill-rule="evenodd" clip-rule="evenodd" d="M180.478 220.869C182.799 178.299 191.416 131.825 204.086 107.103C218.991 78.021 235.138 53.532 252.945 46.492C261.201 43.2276 270.245 41.6216 278.035 52.2963C283.964 60.415 290.851 72.5508 294.114 89.6174C302.097 131.362 284.341 164.594 274.225 183.906C268.778 194.303 261.845 204.435 257.74 219.618C255.359 228.421 254.143 240.065 252.22 249.734C246.393 279.033 236.801 302.664 224.853 306.891C219.328 308.843 213.763 306.428 208.281 304.508C202.668 302.544 196.986 301.477 191.409 298.736C186.957 296.546 181.709 292.839 180.07 279.069C178.002 261.717 179.531 238.254 180.478 220.869Z" stroke="#FAFAFA" stroke-width="4"/>
<path fill-rule="evenodd" clip-rule="evenodd" d="M186.128 214.032C189.512 174.009 196.678 134.969 208.724 111.076C215.112 98.4062 222.527 89.6603 229.647 81.0192C237.717 71.226 246.149 63.6243 254.761 59.8536C265.483 55.1564 282.85 50.9225 288.452 86.2321C294.012 121.28 279.961 152.299 271.652 169.976C266.325 181.3 260.624 191.694 255.534 204.073C252.774 210.785 250.648 218.539 248.313 226.411C241.858 248.221 232.655 265.487 223.276 274.704C214.185 283.64 202.939 287.596 193.343 284.643C189.202 283.374 186.243 279.091 184.99 266.917C183.255 249.994 184.729 230.564 186.128 214.032Z" stroke="#FAFAFA" stroke-width="4"/>
<path fill-rule="evenodd" clip-rule="evenodd" d="M191.741 203.252C195.103 168.013 202.353 135.827 212.93 114.677C224.785 90.9683 240.051 77.7939 254.082 71.0944C261.54 67.536 277.702 57.8879 281.504 85.5004C285.305 113.113 274.316 140.324 267.991 155.304C260.314 173.457 252.037 190.984 243.77 207.271C236.588 221.433 228.923 235.911 221.144 246.847C216.756 253.05 212.185 258.116 207.486 261.983C204.006 264.823 199.581 269.059 195.932 266.945C186.73 261.606 190.133 220.101 191.741 203.252Z" stroke="#FAFAFA" stroke-width="4"/>
<path fill-rule="evenodd" clip-rule="evenodd" d="M198.671 192.7C206.047 126.059 229.416 93.2843 251.916 81.8603C257.144 79.2085 271.801 69.6476 274.724 90.0048C277.556 109.742 268.549 133.149 264.332 144.239C251.266 178.604 235.123 204.084 219.826 229.326C215.051 237.205 206.439 254.302 200.516 246.415C194.086 237.836 197.143 206.518 198.671 192.7Z" stroke="#FAFAFA" stroke-width="4"/>
<path fill-rule="evenodd" clip-rule="evenodd" d="M-0.015282 262.295C-0.191969 230.854 -5.97258 198.179 -3.11775 166.143C-0.773518 139.832 11.0284 137.635 18.1084 125.715C23.7345 116.245 26.9274 99.4684 29.9701 83.3721C32.7039 68.9212 35.1594 54.0358 38.0393 39.8222C39.9035 30.6335 43.1048 12.59 47.1477 12.2641C51.0181 11.9503 54.5672 26.011 56.8154 34.3227C59.7468 45.1568 62.3456 56.7071 65.1921 67.7143C69.9891 86.2808 75.7446 100.024 82.3349 113.03C89.8346 127.83 97.4581 142.124 105.205 155.912C110.91 166.095 116.653 176.201 122.135 187.389C125.575 194.409 133.165 207.581 133.2 220.523C133.217 226.698 131.192 233.538 129.828 238.474C127.518 246.83 124.886 254.47 122.245 261.945C117.327 275.869 112.201 289.161 107.13 302.614C100.548 320.074 94.2606 337.249 88.4744 357.071C82.4921 377.588 76.7769 398.782 70.9448 419.686C66.9951 433.847 63.0496 449.75 57.3524 458.44C50.2168 469.302 44.3597 457.849 37.1433 457.716C30.9356 457.599 31.3933 416.017 30.6045 404.454C29.8129 392.751 28.0683 381.857 27.3921 370.125C26.549 355.481 26.5379 340.499 26.3306 325.699C26.0788 307.595 25.9786 290.36 19.2854 283.456C15.4762 279.534 11.3553 278.709 7.41254 276.359C4.85823 274.835 0.0403676 272.228 -0.015282 262.295Z" stroke="#FAFAFA" stroke-width="4"/>
<path fill-rule="evenodd" clip-rule="evenodd" d="M3.03581 256.702C2.38511 230.347 -1.45913 196.615 2.17611 169.41C5.28188 146.162 14.9949 143.148 21.5353 130.935C26.9345 120.862 29.338 104.379 32.0369 88.1858C34.2022 75.1957 36.302 62.0808 38.7598 49.5057C40.5712 40.2386 43.337 24.5934 47.1032 22.6755C50.489 20.951 54.1201 34.763 56.0206 41.7899C58.7934 52.0481 61.1649 63.1888 63.6144 74.0958C67.9184 93.2545 72.3256 110.483 78.6249 124.557C84.9521 138.691 91.8742 149.26 98.8702 160.26C104.343 168.866 109.788 177.722 114.988 187.658C118.862 195.055 124.431 204.524 126.204 217.716C127.607 228.151 120.491 245.468 118.392 251.581C114.073 264.148 109.496 275.945 104.91 287.67C99.3203 301.957 93.5518 314.452 88.6152 330.75C79.7855 359.889 72.405 396.176 61.0436 417.832C54.1912 430.895 46.5654 434.235 38.9438 432.281C35.9258 431.507 35.2012 419.19 34.8208 412.006C34.1883 400.072 34.1088 387.932 33.6226 375.949C33.1669 364.732 32.1554 354.075 31.3403 343.075C30.5154 331.93 30.2841 320.512 29.6766 309.291C29.3004 302.324 28.9284 294.217 27.2828 288.617C25.5802 282.819 22.7712 280.389 20.3161 278.544C15.7055 275.111 3.49561 275.3 3.03581 256.702Z" stroke="#FAFAFA" stroke-width="4"/>
<path fill-rule="evenodd" clip-rule="evenodd" d="M6.96442 245.669C5.8701 221.478 4.33804 191.347 8.79619 169.058C12.4402 150.834 20.212 146.902 25.7631 135.028C30.3801 125.153 32.1241 109.448 34.4159 94.8532C36.2965 82.8821 38.1868 70.8587 40.466 59.467C42.1947 50.8277 44.4223 39.114 47.8545 36.1001C50.7889 33.5248 54.104 45.0614 55.7308 50.8035C58.5008 60.5897 60.7591 71.5548 63.0021 82.3751C66.6712 100.08 70.0476 118.993 75.2697 133.394C80.344 147.369 86.3719 155.618 92.5126 164.893C97.2161 172 101.89 179.379 106.322 187.854C109.725 194.356 113.942 202.062 115.715 212.882C117.248 222.214 113.312 233.26 111.345 239.843C108.097 250.707 104.492 260.674 100.937 270.682C97.1004 281.478 92.8514 291.437 89.139 302.499C81.3324 325.777 75.0954 351.55 65.4738 369.384C59.2424 380.937 50.8572 391.431 43.4911 389.544C38.1938 388.184 38.5423 354.295 38.0334 343.466C37.197 325.761 35.5813 307.159 33.0149 290.85C30.8109 276.875 25.5735 272.565 20.7557 269.43C17.7376 267.463 14.5745 266.4 11.6554 263.358C8.27621 259.833 7.42306 255.81 6.96442 245.669Z" stroke="#FAFAFA" stroke-width="4"/>
<path fill-rule="evenodd" clip-rule="evenodd" d="M10.6282 234.33C9.9766 213.877 10.1231 189.691 14.3437 171.999C18.0424 156.502 24.6279 152.422 29.3116 140.214C32.9671 130.689 34.4028 115.16 36.3687 102.565C38.7713 87.1644 42.1379 58.7208 48.1988 52.9255C53.8369 47.5379 59.7331 81.9543 61.7743 92.2171C65.0057 108.461 67.7082 126.274 71.6274 141.275C75.0025 154.189 79.5244 161.328 84.3239 169C90.4434 178.799 99.7342 190.418 103.006 209.515C105.445 223.744 97.5144 244.899 94.8063 254.759C91.974 265.058 89.8407 277.266 86.9177 287.202C82.3051 302.88 74.8308 315.504 68.6598 325.137C62.6603 334.508 54.8694 344.88 48.0634 344.262C43.5904 343.859 42.7393 323.89 41.7849 314.136C40.4176 300.269 38.5996 287.843 34.6944 278.412C30.7194 268.811 26.0342 264.287 21.1091 260.328C18.581 258.31 15.697 256.736 13.4354 252.66C10.9365 248.225 10.8793 242.192 10.6282 234.33Z" stroke="#FAFAFA" stroke-width="4"/>
<path fill-rule="evenodd" clip-rule="evenodd" d="M15.0915 222.541C15.1277 204.871 16.5253 186.029 20.6696 172.399C24.1213 161.046 29.5242 157.251 32.8285 145.645C35.4458 136.457 36.7781 123.558 38.5304 112.888C40.6735 99.8122 43.7038 76.97 49.033 72.4321C54.2342 68.0146 58.8346 93.174 60.8289 103.129C63.7494 117.727 66.1136 133.2 69.0604 147.758C71.369 159.179 74.1921 166.54 77.9512 173.901C82.3639 182.547 88.5205 192.125 90.8778 206.429C92.5772 216.786 88.4635 233.336 86.9699 242.46C85.9686 248.588 85.0521 254.812 84.5487 261.455C84.1565 266.627 84.1176 271.414 82.9814 275.856C80.1207 287.028 73.8486 288.485 69.5931 292.168C63.9413 297.055 57.9446 302.609 52.0299 303.669C48.3946 304.332 46.5394 294.65 44.4645 287.839C42.0127 279.787 38.5415 273.996 35.5098 267.92C31.5087 259.888 27.1544 254.893 22.65 249.777C20.6182 247.467 18.2317 245.202 16.6574 240.612C15.0136 235.854 15.079 228.918 15.0915 222.541Z" stroke="#FAFAFA" stroke-width="4"/>
<path fill-rule="evenodd" clip-rule="evenodd" d="M19.7807 212.052C20.499 197.211 22.7375 183.028 26.5185 172.537C29.4169 164.482 33.2661 159.948 35.5923 150.27C37.7599 141.249 39.2703 130.992 41.0606 121.347C42.9553 111.15 45.7701 94.107 50.14 91.3323C54.8495 88.3441 58.4774 105.536 60.4862 115.065C63.0241 127.106 64.9522 140.061 67.2213 152.518C68.9308 161.802 71.1114 170.293 73.6905 177.708C76.3954 185.524 80.0636 193.011 81.4321 203.76C82.6418 213.28 80.3782 224.798 79.9787 234.451C79.5513 244.765 80.3003 255.598 77.9309 264.454C73.0445 282.717 60.7814 279.33 53.7706 279.721C46.8532 280.123 41.2917 268.948 35.694 258.316C31.9965 251.297 28.1459 245.353 24.3552 238.812C20.4906 232.139 19.1486 225.112 19.7807 212.052Z" stroke="#FAFAFA" stroke-width="4"/>
<path fill-rule="evenodd" clip-rule="evenodd" d="M24.1371 203.557C26.2613 182.058 32.896 170.631 37.6391 154.384C41.5198 141.083 44.4297 113.538 50.9655 109.894C58.3858 105.759 62.828 142.256 65.4078 156.339C68.2703 171.957 73.3685 184.662 75.4886 201.195C76.603 209.873 75.646 217.971 75.0526 226.645C74.4021 236.169 73.9132 245.907 71.6677 253.573C67.2479 268.66 58.6157 268.555 52.3989 268.97C45.9634 269.401 40.2704 259.063 35.1429 248.744C29.7047 237.817 21.9613 225.605 24.1371 203.557Z" stroke="#FAFAFA" stroke-width="4"/>
<path fill-rule="evenodd" clip-rule="evenodd" d="M27.6949 197.728C30.0885 182.41 35.1185 169.957 39.2001 158.202C42.6068 148.401 46.2716 128.673 51.4658 127.266C57.5706 125.607 61.2706 146.675 63.6726 159.592C66.0368 172.285 69.4435 185.688 70.7526 199.619C72.1178 214.131 68.4824 233.676 65.0154 243.945C61.1485 255.396 54.822 259.627 49.3935 259.17C43.7096 258.705 38.4944 249.241 34.1897 239.425C29.5876 228.932 24.9111 215.509 27.6949 197.728Z" stroke="#FAFAFA" stroke-width="4"/>
<path fill-rule="evenodd" clip-rule="evenodd" d="M30.9959 194.843C33.2823 182.103 37.2457 171.326 40.9 161.712C43.7202 154.291 47.8815 141.671 51.9502 141.362C56.4262 141.021 60.2196 151.613 61.999 162.471C63.7532 173.18 65.6014 186.607 65.8641 198.355C66.4343 223.94 54.8251 252.599 46.1077 250.267C37.8426 248.055 26.437 220.227 30.9959 194.843Z" stroke="#FAFAFA" stroke-width="4"/>
<path fill-rule="evenodd" clip-rule="evenodd" d="M34.0493 193.439C37.2036 176.839 44.8654 153.175 51.9586 152.613C60.1005 151.97 62.1444 178.304 61.0831 197.389C60.005 216.866 50.618 245.059 43.1331 241.249C35.8279 237.532 30.3111 213.125 34.0493 193.439Z" stroke="#FAFAFA" stroke-width="4"/>
<path fill-rule="evenodd" clip-rule="evenodd" d="M37.2724 190.755C39.943 176.856 45.6419 159.496 51.5857 158.971C58.6679 158.349 58.5343 180.583 56.9283 194.421C55.2583 208.788 47.9034 233.328 41.7021 229.453C35.672 225.671 34.7131 204.075 37.2724 190.755Z" stroke="#FAFAFA" stroke-width="4"/>
</svg>
